<svg xmlns="http://www.w3.org/2000/svg" xmlns:xlink="http://www.w3.org/1999/xlink" width="500" zoomAndPan="magnify" viewBox="0 0 375 374.999991" height="500" preserveAspectRatio="xMidYMid meet" version="1.0"><defs><g/><clipPath id="2f1671bf78"><path d="M 177.824219 136.726562 L 224.46875 136.726562 L 224.46875 171.035156 L 177.824219 171.035156 Z M 177.824219 136.726562 " clip-rule="nonzero"/></clipPath><clipPath id="2311552932"><path d="M 194.957031 136.726562 L 254 136.726562 L 254 171.035156 L 194.957031 171.035156 Z M 194.957031 136.726562 " clip-rule="nonzero"/></clipPath><clipPath id="191c8389bf"><path d="M 224.46875 136.726562 L 253.976562 171.035156 L 194.957031 171.035156 Z M 224.46875 136.726562 " clip-rule="nonzero"/></clipPath><clipPath id="12a0449dc3"><path d="M 152.984375 122.234375 L 237 122.234375 L 237 171.035156 L 152.984375 171.035156 Z M 152.984375 122.234375 " clip-rule="nonzero"/></clipPath><clipPath id="5c3c8575fc"><path d="M 194.957031 122.234375 L 236.929688 171.035156 L 152.984375 171.035156 Z M 194.957031 122.234375 " clip-rule="nonzero"/></clipPath><clipPath id="aff065303e"><path d="M 109.039062 128 L 121.664062 128 L 121.664062 160.128906 L 109.039062 160.128906 Z M 109.039062 128 " clip-rule="nonzero"/></clipPath><clipPath id="af3ce01adc"><path d="M 96.484375 122.234375 L 180.554688 122.234375 L 180.554688 171.035156 L 96.484375 171.035156 Z M 96.484375 122.234375 " clip-rule="nonzero"/></clipPath><clipPath id="aacd263305"><path d="M 138.457031 122.234375 L 180.429688 171.035156 L 96.484375 171.035156 Z M 138.457031 122.234375 " clip-rule="nonzero"/></clipPath><clipPath id="db990c54b8"><path d="M 138.457031 122.234375 L 194.957031 122.234375 L 194.957031 171.035156 L 138.457031 171.035156 Z M 138.457031 122.234375 " clip-rule="nonzero"/></clipPath><clipPath id="5f3f0710a1"><path d="M 194.957031 140.832031 L 250.527344 140.832031 L 250.527344 173.089844 L 194.957031 173.089844 Z M 194.957031 140.832031 " clip-rule="nonzero"/></clipPath><clipPath id="6211c64d38"><path d="M 222.703125 140.832031 L 250.445312 173.089844 L 194.957031 173.089844 Z M 222.703125 140.832031 " clip-rule="nonzero"/></clipPath><clipPath id="c624d99491"><path d="M 180 132 L 225 132 L 225 138 L 180 138 Z M 180 132 " clip-rule="nonzero"/></clipPath><clipPath id="1b65d88296"><path d="M 180.835938 139.800781 L 180.535156 136.0625 L 224.152344 132.5625 L 224.453125 136.300781 Z M 180.835938 139.800781 " clip-rule="nonzero"/></clipPath><clipPath id="6ef7832ea4"><path d="M 180.6875 137.933594 L 224.140625 132.5625 L 224.441406 136.300781 Z M 180.6875 137.933594 " clip-rule="nonzero"/></clipPath><clipPath id="d86549a816"><path d="M 100.929688 126.332031 L 179.21875 126.332031 L 179.21875 171.78125 L 100.929688 171.78125 Z M 100.929688 126.332031 " clip-rule="nonzero"/></clipPath><clipPath id="31e134c393"><path d="M 140.015625 126.332031 L 179.105469 171.78125 L 100.929688 171.78125 Z M 140.015625 126.332031 " clip-rule="nonzero"/></clipPath><clipPath id="420e1a4d0e"><path d="M 107.886719 127.75 L 122.8125 127.75 L 122.8125 131.5 L 107.886719 131.5 Z M 107.886719 127.75 " clip-rule="nonzero"/></clipPath><clipPath id="1478f20eb6"><path d="M 133.421875 155.980469 L 139.460938 155.980469 L 139.460938 161.703125 L 133.421875 161.703125 Z M 133.421875 155.980469 " clip-rule="nonzero"/></clipPath><clipPath id="81cca8d505"><path d="M 217.320312 159.464844 L 222.25 159.464844 L 222.25 164.136719 L 217.320312 164.136719 Z M 217.320312 159.464844 " clip-rule="nonzero"/></clipPath><clipPath id="8efe0d4d51"><path d="M 133.421875 148.722656 L 139.460938 148.722656 L 139.460938 154.449219 L 133.421875 154.449219 Z M 133.421875 148.722656 " clip-rule="nonzero"/></clipPath><clipPath id="3e20f53631"><path d="M 217.320312 153.542969 L 222.25 153.542969 L 222.25 158.214844 L 217.320312 158.214844 Z M 217.320312 153.542969 " clip-rule="nonzero"/></clipPath><clipPath id="861970d961"><path d="M 140.570312 155.980469 L 146.613281 155.980469 L 146.613281 161.703125 L 140.570312 161.703125 Z M 140.570312 155.980469 " clip-rule="nonzero"/></clipPath><clipPath id="2cbd6ae69b"><path d="M 223.15625 159.464844 L 228.085938 159.464844 L 228.085938 164.136719 L 223.15625 164.136719 Z M 223.15625 159.464844 " clip-rule="nonzero"/></clipPath><clipPath id="0f804890f5"><path d="M 140.570312 148.722656 L 146.613281 148.722656 L 146.613281 154.449219 L 140.570312 154.449219 Z M 140.570312 148.722656 " clip-rule="nonzero"/></clipPath><clipPath id="77a7005335"><path d="M 223.15625 153.542969 L 228.085938 153.542969 L 228.085938 158.214844 L 223.15625 158.214844 Z M 223.15625 153.542969 " clip-rule="nonzero"/></clipPath><clipPath id="cbe00ad147"><path d="M 73.4375 165.421875 L 276.179688 165.421875 L 276.179688 189.664062 L 73.4375 189.664062 Z M 73.4375 165.421875 " clip-rule="nonzero"/></clipPath><clipPath id="1a5f586135"><path d="M 174.789062 165.421875 C 118.8125 165.421875 73.4375 170.851562 73.4375 177.542969 C 73.4375 184.238281 118.8125 189.664062 174.789062 189.664062 C 230.765625 189.664062 276.140625 184.238281 276.140625 177.542969 C 276.140625 170.851562 230.765625 165.421875 174.789062 165.421875 Z M 174.789062 165.421875 " clip-rule="nonzero"/></clipPath><clipPath id="66e9f1a373"><path d="M 59.8125 169.277344 L 287.367188 169.277344 L 287.367188 193.519531 L 59.8125 193.519531 Z M 59.8125 169.277344 " clip-rule="nonzero"/></clipPath><clipPath id="adc048fc6d"><path d="M 173.550781 169.277344 C 110.734375 169.277344 59.8125 174.703125 59.8125 181.398438 C 59.8125 188.09375 110.734375 193.519531 173.550781 193.519531 C 236.367188 193.519531 287.289062 188.09375 287.289062 181.398438 C 287.289062 174.703125 236.367188 169.277344 173.550781 169.277344 Z M 173.550781 169.277344 " clip-rule="nonzero"/></clipPath></defs><rect x="-37.5" width="450" fill="#ffffff" y="-37.499999" height="449.999989" fill-opacity="1"/><rect x="-37.5" width="450" fill="#ffffff" y="-37.499999" height="449.999989" fill-opacity="1"/><g clip-path="url(#2f1671bf78)"><path fill="#000000" d="M 177.824219 136.726562 L 224.46875 136.726562 L 224.46875 171.035156 L 177.824219 171.035156 Z M 177.824219 136.726562 " fill-opacity="1" fill-rule="nonzero"/></g><g clip-path="url(#2311552932)"><g clip-path="url(#191c8389bf)"><path fill="#000000" d="M 194.957031 136.726562 L 253.929688 136.726562 L 253.929688 171.035156 L 194.957031 171.035156 Z M 194.957031 136.726562 " fill-opacity="1" fill-rule="nonzero"/></g></g><g clip-path="url(#12a0449dc3)"><g clip-path="url(#5c3c8575fc)"><path fill="#000000" d="M 152.984375 122.234375 L 236.863281 122.234375 L 236.863281 171.035156 L 152.984375 171.035156 Z M 152.984375 122.234375 " fill-opacity="1" fill-rule="nonzero"/></g></g><g clip-path="url(#aff065303e)"><path fill="#000000" d="M 109.039062 128 L 121.664062 128 L 121.664062 160.152344 L 109.039062 160.152344 Z M 109.039062 128 " fill-opacity="1" fill-rule="nonzero"/></g><g clip-path="url(#af3ce01adc)"><g clip-path="url(#aacd263305)"><path fill="#000000" d="M 96.484375 122.234375 L 180.363281 122.234375 L 180.363281 171.035156 L 96.484375 171.035156 Z M 96.484375 122.234375 " fill-opacity="1" fill-rule="nonzero"/></g></g><g clip-path="url(#db990c54b8)"><path fill="#000000" d="M 138.457031 122.234375 L 194.882812 122.234375 L 194.882812 171.035156 L 138.457031 171.035156 Z M 138.457031 122.234375 " fill-opacity="1" fill-rule="nonzero"/></g><g clip-path="url(#5f3f0710a1)"><g clip-path="url(#6211c64d38)"><path fill="#ffffff" d="M 194.957031 140.832031 L 250.402344 140.832031 L 250.402344 173.089844 L 194.957031 173.089844 Z M 194.957031 140.832031 " fill-opacity="1" fill-rule="nonzero"/></g></g><g clip-path="url(#c624d99491)"><g clip-path="url(#1b65d88296)"><g clip-path="url(#6ef7832ea4)"><path fill="#ffffff" d="M 180.835938 139.800781 L 180.535156 136.0625 L 224.136719 132.5625 L 224.4375 136.300781 Z M 180.835938 139.800781 " fill-opacity="1" fill-rule="nonzero"/></g></g></g><g clip-path="url(#d86549a816)"><g clip-path="url(#31e134c393)"><path fill="#ffffff" d="M 100.929688 126.332031 L 179.042969 126.332031 L 179.042969 171.78125 L 100.929688 171.78125 Z M 100.929688 126.332031 " fill-opacity="1" fill-rule="nonzero"/></g></g><g clip-path="url(#420e1a4d0e)"><path fill="#000000" d="M 107.886719 127.75 L 122.8125 127.75 L 122.8125 131.5 L 107.886719 131.5 Z M 107.886719 127.75 " fill-opacity="1" fill-rule="nonzero"/></g><g clip-path="url(#1478f20eb6)"><path fill="#000000" d="M 133.421875 155.980469 L 139.457031 155.980469 L 139.457031 161.703125 L 133.421875 161.703125 Z M 133.421875 155.980469 " fill-opacity="1" fill-rule="nonzero"/></g><g clip-path="url(#81cca8d505)"><path fill="#000000" d="M 217.320312 159.464844 L 222.246094 159.464844 L 222.246094 164.136719 L 217.320312 164.136719 Z M 217.320312 159.464844 " fill-opacity="1" fill-rule="nonzero"/></g><g clip-path="url(#8efe0d4d51)"><path fill="#000000" d="M 133.421875 148.722656 L 139.457031 148.722656 L 139.457031 154.449219 L 133.421875 154.449219 Z M 133.421875 148.722656 " fill-opacity="1" fill-rule="nonzero"/></g><g clip-path="url(#3e20f53631)"><path fill="#000000" d="M 217.320312 153.542969 L 222.246094 153.542969 L 222.246094 158.214844 L 217.320312 158.214844 Z M 217.320312 153.542969 " fill-opacity="1" fill-rule="nonzero"/></g><g clip-path="url(#861970d961)"><path fill="#000000" d="M 140.570312 155.980469 L 146.609375 155.980469 L 146.609375 161.703125 L 140.570312 161.703125 Z M 140.570312 155.980469 " fill-opacity="1" fill-rule="nonzero"/></g><g clip-path="url(#2cbd6ae69b)"><path fill="#000000" d="M 223.15625 159.464844 L 228.082031 159.464844 L 228.082031 164.136719 L 223.15625 164.136719 Z M 223.15625 159.464844 " fill-opacity="1" fill-rule="nonzero"/></g><g clip-path="url(#0f804890f5)"><path fill="#000000" d="M 140.570312 148.722656 L 146.609375 148.722656 L 146.609375 154.449219 L 140.570312 154.449219 Z M 140.570312 148.722656 " fill-opacity="1" fill-rule="nonzero"/></g><g clip-path="url(#77a7005335)"><path fill="#000000" d="M 223.15625 153.542969 L 228.082031 153.542969 L 228.082031 158.214844 L 223.15625 158.214844 Z M 223.15625 153.542969 " fill-opacity="1" fill-rule="nonzero"/></g><g clip-path="url(#cbe00ad147)"><g clip-path="url(#1a5f586135)"><path fill="#000000" d="M 73.4375 165.421875 L 276.179688 165.421875 L 276.179688 189.664062 L 73.4375 189.664062 Z M 73.4375 165.421875 " fill-opacity="1" fill-rule="nonzero"/></g></g><g clip-path="url(#66e9f1a373)"><g clip-path="url(#adc048fc6d)"><path fill="#ffffff" d="M 59.8125 169.277344 L 287.269531 169.277344 L 287.269531 193.519531 L 59.8125 193.519531 Z M 59.8125 169.277344 " fill-opacity="1" fill-rule="nonzero"/></g></g><g fill="#000000" fill-opacity="1"><g transform="translate(205.47451, 133.18852)"><g><path d="M 3.859375 -7.96875 L 3.34375 -7.96875 C 3.320312 -7.96875 3.304688 -7.96875 3.296875 -7.96875 L 3.296875 -0.890625 C 3.304688 -0.679688 3.382812 -0.5 3.53125 -0.34375 C 3.6875 -0.195312 3.867188 -0.125 4.078125 -0.125 L 4.234375 -0.125 L 4.234375 0 L 0.546875 0 L 0.546875 -0.125 L 0.703125 -0.125 C 0.992188 -0.125 1.21875 -0.25 1.375 -0.5 C 1.4375 -0.613281 1.472656 -0.738281 1.484375 -0.875 L 1.484375 -7.609375 C 1.472656 -7.816406 1.390625 -7.992188 1.234375 -8.140625 C 1.085938 -8.296875 0.910156 -8.375 0.703125 -8.375 L 0.546875 -8.375 L 0.546875 -8.5 L 4.703125 -8.5 C 5.492188 -8.5 6.160156 -8.328125 6.703125 -7.984375 C 6.972656 -7.816406 7.1875 -7.582031 7.34375 -7.28125 C 7.507812 -6.976562 7.59375 -6.582031 7.59375 -6.09375 C 7.59375 -5.601562 7.421875 -5.128906 7.078125 -4.671875 C 6.742188 -4.222656 6.253906 -3.960938 5.609375 -3.890625 C 6.078125 -3.742188 6.488281 -3.390625 6.84375 -2.828125 C 7.71875 -1.429688 8.367188 -0.597656 8.796875 -0.328125 C 9.003906 -0.203125 9.265625 -0.132812 9.578125 -0.125 L 9.578125 0 L 8.390625 0 C 7.679688 0 7.09375 -0.09375 6.625 -0.28125 C 6.164062 -0.46875 5.800781 -0.796875 5.53125 -1.265625 C 5.382812 -1.523438 5.050781 -2.21875 4.53125 -3.34375 C 4.300781 -3.832031 4.023438 -4.101562 3.703125 -4.15625 L 3.703125 -4.28125 L 4.078125 -4.28125 C 4.441406 -4.28125 4.765625 -4.382812 5.046875 -4.59375 C 5.328125 -4.8125 5.515625 -5.171875 5.609375 -5.671875 C 5.640625 -5.835938 5.65625 -5.96875 5.65625 -6.0625 C 5.65625 -6.726562 5.519531 -7.207031 5.25 -7.5 C 4.988281 -7.800781 4.644531 -7.957031 4.21875 -7.96875 C 4.144531 -7.96875 4.023438 -7.96875 3.859375 -7.96875 Z M 3.859375 -7.96875 "/></g></g></g><g fill="#000000" fill-opacity="1"><g transform="translate(215.929082, 133.18852)"><g><path d="M 0.671875 -0.125 C 0.878906 -0.125 1.054688 -0.195312 1.203125 -0.34375 C 1.359375 -0.5 1.4375 -0.679688 1.4375 -0.890625 L 1.4375 -7.65625 C 1.425781 -7.863281 1.367188 -8.015625 1.265625 -8.109375 C 1.066406 -8.285156 0.867188 -8.375 0.671875 -8.375 L 0.515625 -8.375 L 0.515625 -8.5 L 5.15625 -8.5 C 5.550781 -8.5 5.878906 -8.53125 6.140625 -8.59375 C 6.398438 -8.65625 6.554688 -8.695312 6.609375 -8.71875 L 6.609375 -6.59375 L 6.5 -6.609375 L 6.5 -6.734375 C 6.5 -7.234375 6.3125 -7.59375 5.9375 -7.8125 C 5.757812 -7.914062 5.550781 -7.96875 5.3125 -7.96875 L 3.265625 -7.96875 L 3.265625 -4.4375 L 4.875 -4.4375 C 5.164062 -4.445312 5.410156 -4.550781 5.609375 -4.75 C 5.804688 -4.945312 5.90625 -5.191406 5.90625 -5.484375 L 5.90625 -5.59375 L 6.015625 -5.59375 L 6.015625 -2.796875 L 5.90625 -2.796875 L 5.90625 -2.890625 C 5.90625 -3.191406 5.804688 -3.4375 5.609375 -3.625 C 5.421875 -3.820312 5.179688 -3.925781 4.890625 -3.9375 L 3.265625 -3.9375 L 3.265625 -0.515625 L 4.859375 -0.515625 C 5.453125 -0.515625 5.945312 -0.6875 6.34375 -1.03125 C 6.738281 -1.375 7.035156 -1.859375 7.234375 -2.484375 L 7.359375 -2.484375 L 6.796875 0 L 0.515625 0 L 0.515625 -0.125 Z M 0.671875 -0.125 "/></g></g></g><g fill="#000000" fill-opacity="1"><g transform="translate(224.975308, 133.18852)"><g><path d="M 8.96875 -0.125 L 9.078125 -0.125 L 9.078125 0 L 5.203125 0 L 5.203125 -0.125 L 5.3125 -0.125 C 5.488281 -0.125 5.617188 -0.175781 5.703125 -0.28125 C 5.785156 -0.394531 5.828125 -0.5 5.828125 -0.59375 C 5.828125 -0.6875 5.804688 -0.785156 5.765625 -0.890625 L 5.171875 -2.375 L 2.328125 -2.375 L 1.703125 -0.890625 C 1.660156 -0.785156 1.640625 -0.6875 1.640625 -0.59375 C 1.640625 -0.5 1.679688 -0.394531 1.765625 -0.28125 C 1.859375 -0.175781 1.992188 -0.125 2.171875 -0.125 L 2.28125 -0.125 L 2.28125 0 L -0.328125 0 L -0.328125 -0.125 L -0.21875 -0.125 C -0.03125 -0.125 0.15625 -0.179688 0.34375 -0.296875 C 0.53125 -0.410156 0.6875 -0.578125 0.8125 -0.796875 L 3.609375 -7.15625 C 3.992188 -7.957031 4.195312 -8.484375 4.21875 -8.734375 L 4.328125 -8.734375 L 7.9375 -0.828125 C 8.050781 -0.585938 8.203125 -0.410156 8.390625 -0.296875 C 8.578125 -0.179688 8.769531 -0.125 8.96875 -0.125 Z M 2.546875 -2.890625 L 4.96875 -2.890625 L 3.796875 -5.875 Z M 2.546875 -2.890625 "/></g></g></g><g fill="#000000" fill-opacity="1"><g transform="translate(235.053515, 133.18852)"><g><path d="M 0.671875 -0.125 C 0.878906 -0.125 1.054688 -0.195312 1.203125 -0.34375 C 1.359375 -0.5 1.4375 -0.679688 1.4375 -0.890625 L 1.4375 -7.609375 C 1.4375 -7.816406 1.359375 -7.992188 1.203125 -8.140625 C 1.054688 -8.296875 0.878906 -8.375 0.671875 -8.375 L 0.515625 -8.375 L 0.515625 -8.5 L 4.203125 -8.5 L 4.1875 -8.375 L 4.046875 -8.375 C 3.835938 -8.375 3.65625 -8.296875 3.5 -8.140625 C 3.34375 -7.992188 3.265625 -7.816406 3.265625 -7.609375 L 3.265625 -0.515625 L 4.859375 -0.515625 C 5.453125 -0.515625 5.945312 -0.6875 6.34375 -1.03125 C 6.738281 -1.375 7.035156 -1.859375 7.234375 -2.484375 L 7.359375 -2.484375 L 6.796875 0 L 0.515625 0 L 0.515625 -0.125 Z M 0.671875 -0.125 "/></g></g></g><g fill="#000000" fill-opacity="1"><g transform="translate(243.917623, 133.18852)"><g/></g></g><g fill="#000000" fill-opacity="1"><g transform="translate(248.338158, 133.18852)"><g><path d="M 0.671875 -0.125 C 0.878906 -0.125 1.054688 -0.195312 1.203125 -0.34375 C 1.359375 -0.5 1.4375 -0.679688 1.4375 -0.890625 L 1.4375 -7.65625 C 1.425781 -7.863281 1.367188 -8.015625 1.265625 -8.109375 C 1.066406 -8.285156 0.867188 -8.375 0.671875 -8.375 L 0.515625 -8.375 L 0.515625 -8.5 L 5.15625 -8.5 C 5.550781 -8.5 5.878906 -8.53125 6.140625 -8.59375 C 6.398438 -8.65625 6.554688 -8.695312 6.609375 -8.71875 L 6.609375 -6.59375 L 6.5 -6.609375 L 6.5 -6.734375 C 6.5 -7.234375 6.3125 -7.59375 5.9375 -7.8125 C 5.757812 -7.914062 5.550781 -7.96875 5.3125 -7.96875 L 3.265625 -7.96875 L 3.265625 -4.4375 L 4.875 -4.4375 C 5.164062 -4.445312 5.410156 -4.550781 5.609375 -4.75 C 5.804688 -4.945312 5.90625 -5.191406 5.90625 -5.484375 L 5.90625 -5.59375 L 6.015625 -5.59375 L 6.015625 -2.796875 L 5.90625 -2.796875 L 5.90625 -2.890625 C 5.90625 -3.191406 5.804688 -3.4375 5.609375 -3.625 C 5.421875 -3.820312 5.179688 -3.925781 4.890625 -3.9375 L 3.265625 -3.9375 L 3.265625 -0.515625 L 4.859375 -0.515625 C 5.453125 -0.515625 5.945312 -0.6875 6.34375 -1.03125 C 6.738281 -1.375 7.035156 -1.859375 7.234375 -2.484375 L 7.359375 -2.484375 L 6.796875 0 L 0.515625 0 L 0.515625 -0.125 Z M 0.671875 -0.125 "/></g></g></g><g fill="#000000" fill-opacity="1"><g transform="translate(257.384384, 133.18852)"><g><path d="M 0.609375 -1.125 C 0.609375 -1.707031 0.734375 -2.207031 0.984375 -2.625 L 1.09375 -2.625 C 1.082031 -2.5625 1.078125 -2.492188 1.078125 -2.421875 C 1.078125 -1.867188 1.273438 -1.382812 1.671875 -0.96875 C 2.078125 -0.550781 2.628906 -0.34375 3.328125 -0.34375 C 3.867188 -0.34375 4.289062 -0.46875 4.59375 -0.71875 C 4.894531 -0.976562 5.046875 -1.3125 5.046875 -1.71875 C 5.046875 -1.945312 4.96875 -2.15625 4.8125 -2.34375 C 4.664062 -2.53125 4.421875 -2.738281 4.078125 -2.96875 L 1.96875 -4.359375 C 1.1875 -4.878906 0.796875 -5.523438 0.796875 -6.296875 C 0.796875 -6.378906 0.800781 -6.460938 0.8125 -6.546875 C 0.863281 -7.179688 1.113281 -7.691406 1.5625 -8.078125 C 2.007812 -8.472656 2.609375 -8.671875 3.359375 -8.671875 C 3.804688 -8.671875 4.359375 -8.628906 5.015625 -8.546875 L 5.78125 -8.546875 L 5.625 -6.765625 L 5.5 -6.765625 C 5.5 -7.179688 5.34375 -7.515625 5.03125 -7.765625 C 4.71875 -8.023438 4.300781 -8.15625 3.78125 -8.15625 C 3.15625 -8.15625 2.703125 -7.960938 2.421875 -7.578125 C 2.273438 -7.390625 2.203125 -7.203125 2.203125 -7.015625 C 2.203125 -6.828125 2.238281 -6.671875 2.3125 -6.546875 C 2.425781 -6.335938 2.671875 -6.109375 3.046875 -5.859375 L 5.359375 -4.359375 C 6.085938 -3.878906 6.453125 -3.253906 6.453125 -2.484375 C 6.453125 -1.628906 6.160156 -0.972656 5.578125 -0.515625 C 4.992188 -0.0546875 4.210938 0.171875 3.234375 0.171875 C 2.691406 0.171875 2.1875 0.101562 1.71875 -0.03125 C 1.25 -0.164062 0.90625 -0.347656 0.6875 -0.578125 C 0.632812 -0.722656 0.609375 -0.90625 0.609375 -1.125 Z M 0.609375 -1.125 "/></g></g></g><g fill="#000000" fill-opacity="1"><g transform="translate(265.787136, 133.18852)"><g><path d="M 4.96875 -8 L 4.96875 -0.875 C 4.976562 -0.664062 5.054688 -0.488281 5.203125 -0.34375 C 5.347656 -0.195312 5.53125 -0.125 5.75 -0.125 L 5.890625 -0.125 L 5.90625 0 L 2.203125 0 L 2.203125 -0.125 L 2.375 -0.125 C 2.570312 -0.125 2.742188 -0.195312 2.890625 -0.34375 C 3.046875 -0.488281 3.128906 -0.660156 3.140625 -0.859375 L 3.140625 -8 L 1.5 -8 C 1.132812 -7.988281 0.84375 -7.867188 0.625 -7.640625 C 0.40625 -7.421875 0.296875 -7.128906 0.296875 -6.765625 L 0.296875 -6.609375 L 0.171875 -6.609375 L 0.171875 -8.734375 C 0.503906 -8.585938 0.984375 -8.515625 1.609375 -8.515625 L 6.5 -8.515625 C 6.75 -8.515625 7.019531 -8.535156 7.3125 -8.578125 C 7.601562 -8.628906 7.804688 -8.679688 7.921875 -8.734375 L 7.921875 -6.609375 L 7.8125 -6.609375 L 7.8125 -6.765625 C 7.8125 -7.265625 7.617188 -7.617188 7.234375 -7.828125 C 7.054688 -7.929688 6.84375 -7.988281 6.59375 -8 Z M 4.96875 -8 "/></g></g></g><g fill="#000000" fill-opacity="1"><g transform="translate(275.258296, 133.18852)"><g><path d="M 8.96875 -0.125 L 9.078125 -0.125 L 9.078125 0 L 5.203125 0 L 5.203125 -0.125 L 5.3125 -0.125 C 5.488281 -0.125 5.617188 -0.175781 5.703125 -0.28125 C 5.785156 -0.394531 5.828125 -0.5 5.828125 -0.59375 C 5.828125 -0.6875 5.804688 -0.785156 5.765625 -0.890625 L 5.171875 -2.375 L 2.328125 -2.375 L 1.703125 -0.890625 C 1.660156 -0.785156 1.640625 -0.6875 1.640625 -0.59375 C 1.640625 -0.5 1.679688 -0.394531 1.765625 -0.28125 C 1.859375 -0.175781 1.992188 -0.125 2.171875 -0.125 L 2.28125 -0.125 L 2.28125 0 L -0.328125 0 L -0.328125 -0.125 L -0.21875 -0.125 C -0.03125 -0.125 0.15625 -0.179688 0.34375 -0.296875 C 0.53125 -0.410156 0.6875 -0.578125 0.8125 -0.796875 L 3.609375 -7.15625 C 3.992188 -7.957031 4.195312 -8.484375 4.21875 -8.734375 L 4.328125 -8.734375 L 7.9375 -0.828125 C 8.050781 -0.585938 8.203125 -0.410156 8.390625 -0.296875 C 8.578125 -0.179688 8.769531 -0.125 8.96875 -0.125 Z M 2.546875 -2.890625 L 4.96875 -2.890625 L 3.796875 -5.875 Z M 2.546875 -2.890625 "/></g></g></g><g fill="#000000" fill-opacity="1"><g transform="translate(285.3365, 133.18852)"><g><path d="M 4.96875 -8 L 4.96875 -0.875 C 4.976562 -0.664062 5.054688 -0.488281 5.203125 -0.34375 C 5.347656 -0.195312 5.53125 -0.125 5.75 -0.125 L 5.890625 -0.125 L 5.90625 0 L 2.203125 0 L 2.203125 -0.125 L 2.375 -0.125 C 2.570312 -0.125 2.742188 -0.195312 2.890625 -0.34375 C 3.046875 -0.488281 3.128906 -0.660156 3.140625 -0.859375 L 3.140625 -8 L 1.5 -8 C 1.132812 -7.988281 0.84375 -7.867188 0.625 -7.640625 C 0.40625 -7.421875 0.296875 -7.128906 0.296875 -6.765625 L 0.296875 -6.609375 L 0.171875 -6.609375 L 0.171875 -8.734375 C 0.503906 -8.585938 0.984375 -8.515625 1.609375 -8.515625 L 6.5 -8.515625 C 6.75 -8.515625 7.019531 -8.535156 7.3125 -8.578125 C 7.601562 -8.628906 7.804688 -8.679688 7.921875 -8.734375 L 7.921875 -6.609375 L 7.8125 -6.609375 L 7.8125 -6.765625 C 7.8125 -7.265625 7.617188 -7.617188 7.234375 -7.828125 C 7.054688 -7.929688 6.84375 -7.988281 6.59375 -8 Z M 4.96875 -8 "/></g></g></g><g fill="#000000" fill-opacity="1"><g transform="translate(294.807657, 133.18852)"><g><path d="M 0.671875 -0.125 C 0.878906 -0.125 1.054688 -0.195312 1.203125 -0.34375 C 1.359375 -0.5 1.4375 -0.679688 1.4375 -0.890625 L 1.4375 -7.65625 C 1.425781 -7.863281 1.367188 -8.015625 1.265625 -8.109375 C 1.066406 -8.285156 0.867188 -8.375 0.671875 -8.375 L 0.515625 -8.375 L 0.515625 -8.5 L 5.15625 -8.5 C 5.550781 -8.5 5.878906 -8.53125 6.140625 -8.59375 C 6.398438 -8.65625 6.554688 -8.695312 6.609375 -8.71875 L 6.609375 -6.59375 L 6.5 -6.609375 L 6.5 -6.734375 C 6.5 -7.234375 6.3125 -7.59375 5.9375 -7.8125 C 5.757812 -7.914062 5.550781 -7.96875 5.3125 -7.96875 L 3.265625 -7.96875 L 3.265625 -4.4375 L 4.875 -4.4375 C 5.164062 -4.445312 5.410156 -4.550781 5.609375 -4.75 C 5.804688 -4.945312 5.90625 -5.191406 5.90625 -5.484375 L 5.90625 -5.59375 L 6.015625 -5.59375 L 6.015625 -2.796875 L 5.90625 -2.796875 L 5.90625 -2.890625 C 5.90625 -3.191406 5.804688 -3.4375 5.609375 -3.625 C 5.421875 -3.820312 5.179688 -3.925781 4.890625 -3.9375 L 3.265625 -3.9375 L 3.265625 -0.515625 L 4.859375 -0.515625 C 5.453125 -0.515625 5.945312 -0.6875 6.34375 -1.03125 C 6.738281 -1.375 7.035156 -1.859375 7.234375 -2.484375 L 7.359375 -2.484375 L 6.796875 0 L 0.515625 0 L 0.515625 -0.125 Z M 0.671875 -0.125 "/></g></g></g></svg>