<svg xmlns="http://www.w3.org/2000/svg" xmlns:xlink="http://www.w3.org/1999/xlink" width="500" zoomAndPan="magnify" viewBox="0 0 375 374.999991" height="500" preserveAspectRatio="xMidYMid meet" version="1.0"><defs><g/><clipPath id="f2d2e947e1"><path d="M 150.566406 147.175781 L 199.734375 147.175781 L 199.734375 188.597656 L 150.566406 188.597656 Z M 150.566406 147.175781 " clip-rule="nonzero"/></clipPath><clipPath id="3fb2ea2bc1"><path d="M 168.628906 147.175781 L 230.917969 147.175781 L 230.917969 188.597656 L 168.628906 188.597656 Z M 168.628906 147.175781 " clip-rule="nonzero"/></clipPath><clipPath id="4edc061e35"><path d="M 199.734375 147.175781 L 230.839844 188.597656 L 168.628906 188.597656 Z M 199.734375 147.175781 " clip-rule="nonzero"/></clipPath><clipPath id="a9228741fa"><path d="M 124.382812 129.683594 L 212.984375 129.683594 L 212.984375 188.597656 L 124.382812 188.597656 Z M 124.382812 129.683594 " clip-rule="nonzero"/></clipPath><clipPath id="e3bbf46c97"><path d="M 168.628906 129.683594 L 212.871094 188.597656 L 124.382812 188.597656 Z M 168.628906 129.683594 " clip-rule="nonzero"/></clipPath><clipPath id="1c51c7e7cb"><path d="M 78.058594 136.640625 L 91.367188 136.640625 L 91.367188 175.433594 L 78.058594 175.433594 Z M 78.058594 136.640625 " clip-rule="nonzero"/></clipPath><clipPath id="8c1bbb3c42"><path d="M 64.824219 129.683594 L 153.425781 129.683594 L 153.425781 188.597656 L 64.824219 188.597656 Z M 64.824219 129.683594 " clip-rule="nonzero"/></clipPath><clipPath id="5cf9c6c9f1"><path d="M 109.070312 129.683594 L 153.3125 188.597656 L 64.824219 188.597656 Z M 109.070312 129.683594 " clip-rule="nonzero"/></clipPath><clipPath id="5605ec440e"><path d="M 109.070312 129.683594 L 168.628906 129.683594 L 168.628906 188.597656 L 109.070312 188.597656 Z M 109.070312 129.683594 " clip-rule="nonzero"/></clipPath><clipPath id="21a7e5cf35"><path d="M 168.628906 152.132812 L 227.195312 152.132812 L 227.195312 191.074219 L 168.628906 191.074219 Z M 168.628906 152.132812 " clip-rule="nonzero"/></clipPath><clipPath id="8644297bfe"><path d="M 197.875 152.132812 L 227.117188 191.074219 L 168.628906 191.074219 Z M 197.875 152.132812 " clip-rule="nonzero"/></clipPath><clipPath id="d84815c9e2"><path d="M 153 142 L 200 142 L 200 149 L 153 149 Z M 153 142 " clip-rule="nonzero"/></clipPath><clipPath id="e2af79f5f4"><path d="M 153.753906 150.988281 L 153.390625 146.46875 L 199.382812 142.773438 L 199.746094 147.296875 Z M 153.753906 150.988281 " clip-rule="nonzero"/></clipPath><clipPath id="dde3dd8448"><path d="M 153.570312 148.726562 L 199.375 142.777344 L 199.738281 147.296875 Z M 153.570312 148.726562 " clip-rule="nonzero"/></clipPath><clipPath id="8882383bd0"><path d="M 69.511719 134.628906 L 152 134.628906 L 152 189.496094 L 69.511719 189.496094 Z M 69.511719 134.628906 " clip-rule="nonzero"/></clipPath><clipPath id="8111be81cd"><path d="M 110.714844 134.628906 L 151.914062 189.496094 L 69.511719 189.496094 Z M 110.714844 134.628906 " clip-rule="nonzero"/></clipPath><clipPath id="9b9ead46d5"><path d="M 76.84375 136.640625 L 92.578125 136.640625 L 92.578125 140.871094 L 76.84375 140.871094 Z M 76.84375 136.640625 " clip-rule="nonzero"/></clipPath><clipPath id="8c20c729ae"><path d="M 103.761719 170.421875 L 110.128906 170.421875 L 110.128906 177.332031 L 103.761719 177.332031 Z M 103.761719 170.421875 " clip-rule="nonzero"/></clipPath><clipPath id="866c4f749d"><path d="M 192.199219 174.628906 L 197.394531 174.628906 L 197.394531 180.269531 L 192.199219 180.269531 Z M 192.199219 174.628906 " clip-rule="nonzero"/></clipPath><clipPath id="8837f38b32"><path d="M 103.761719 161.660156 L 110.128906 161.660156 L 110.128906 168.570312 L 103.761719 168.570312 Z M 103.761719 161.660156 " clip-rule="nonzero"/></clipPath><clipPath id="9297ef9689"><path d="M 192.199219 167.480469 L 197.394531 167.480469 L 197.394531 173.121094 L 192.199219 173.121094 Z M 192.199219 167.480469 " clip-rule="nonzero"/></clipPath><clipPath id="d34ee98d20"><path d="M 111.296875 170.421875 L 117.667969 170.421875 L 117.667969 177.332031 L 111.296875 177.332031 Z M 111.296875 170.421875 " clip-rule="nonzero"/></clipPath><clipPath id="7ea608b623"><path d="M 198.351562 174.628906 L 203.546875 174.628906 L 203.546875 180.269531 L 198.351562 180.269531 Z M 198.351562 174.628906 " clip-rule="nonzero"/></clipPath><clipPath id="ffa174b186"><path d="M 111.296875 161.660156 L 117.667969 161.660156 L 117.667969 168.570312 L 111.296875 168.570312 Z M 111.296875 161.660156 " clip-rule="nonzero"/></clipPath><clipPath id="6a6ee21459"><path d="M 198.351562 167.480469 L 203.546875 167.480469 L 203.546875 173.121094 L 198.351562 173.121094 Z M 198.351562 167.480469 " clip-rule="nonzero"/></clipPath><clipPath id="32ec66d344"><path d="M 40.53125 181.820312 L 254.300781 181.820312 L 254.300781 211.085938 L 40.53125 211.085938 Z M 40.53125 181.820312 " clip-rule="nonzero"/></clipPath><clipPath id="ec15349024"><path d="M 147.367188 181.820312 C 88.363281 181.820312 40.53125 188.371094 40.53125 196.453125 C 40.53125 204.535156 88.363281 211.085938 147.367188 211.085938 C 206.371094 211.085938 254.203125 204.535156 254.203125 196.453125 C 254.203125 188.371094 206.371094 181.820312 147.367188 181.820312 Z M 147.367188 181.820312 " clip-rule="nonzero"/></clipPath><clipPath id="83ef20a985"><path d="M 26.167969 186.472656 L 266 186.472656 L 266 215.738281 L 26.167969 215.738281 Z M 26.167969 186.472656 " clip-rule="nonzero"/></clipPath><clipPath id="4a5d290e27"><path d="M 146.0625 186.472656 C 79.847656 186.472656 26.167969 193.023438 26.167969 201.105469 C 26.167969 209.1875 79.847656 215.738281 146.0625 215.738281 C 212.277344 215.738281 265.953125 209.1875 265.953125 201.105469 C 265.953125 193.023438 212.277344 186.472656 146.0625 186.472656 Z M 146.0625 186.472656 " clip-rule="nonzero"/></clipPath></defs><rect x="-37.5" width="450" fill="#ffffff" y="-37.499999" height="449.999989" fill-opacity="1"/><rect x="-37.5" width="450" fill="#000000" y="-37.499999" height="449.999989" fill-opacity="1"/><g clip-path="url(#f2d2e947e1)"><path fill="#ffffff" d="M 150.566406 147.175781 L 199.753906 147.175781 L 199.753906 188.597656 L 150.566406 188.597656 Z M 150.566406 147.175781 " fill-opacity="1" fill-rule="nonzero"/></g><g clip-path="url(#3fb2ea2bc1)"><g clip-path="url(#4edc061e35)"><path fill="#ffffff" d="M 168.628906 147.175781 L 230.917969 147.175781 L 230.917969 188.597656 L 168.628906 188.597656 Z M 168.628906 147.175781 " fill-opacity="1" fill-rule="nonzero"/></g></g><g clip-path="url(#a9228741fa)"><g clip-path="url(#e3bbf46c97)"><path fill="#ffffff" d="M 124.382812 129.683594 L 212.984375 129.683594 L 212.984375 188.597656 L 124.382812 188.597656 Z M 124.382812 129.683594 " fill-opacity="1" fill-rule="nonzero"/></g></g><g clip-path="url(#1c51c7e7cb)"><path fill="#ffffff" d="M 78.058594 136.640625 L 91.367188 136.640625 L 91.367188 175.421875 L 78.058594 175.421875 Z M 78.058594 136.640625 " fill-opacity="1" fill-rule="nonzero"/></g><g clip-path="url(#8c1bbb3c42)"><g clip-path="url(#5cf9c6c9f1)"><path fill="#ffffff" d="M 64.824219 129.683594 L 153.425781 129.683594 L 153.425781 188.597656 L 64.824219 188.597656 Z M 64.824219 129.683594 " fill-opacity="1" fill-rule="nonzero"/></g></g><g clip-path="url(#5605ec440e)"><path fill="#ffffff" d="M 109.070312 129.683594 L 168.671875 129.683594 L 168.671875 188.597656 L 109.070312 188.597656 Z M 109.070312 129.683594 " fill-opacity="1" fill-rule="nonzero"/></g><g clip-path="url(#21a7e5cf35)"><g clip-path="url(#8644297bfe)"><path fill="#000000" d="M 168.628906 152.132812 L 227.195312 152.132812 L 227.195312 191.074219 L 168.628906 191.074219 Z M 168.628906 152.132812 " fill-opacity="1" fill-rule="nonzero"/></g></g><g clip-path="url(#d84815c9e2)"><g clip-path="url(#e2af79f5f4)"><g clip-path="url(#dde3dd8448)"><path fill="#000000" d="M 153.753906 150.988281 L 153.390625 146.46875 L 199.382812 142.773438 L 199.746094 147.296875 Z M 153.753906 150.988281 " fill-opacity="1" fill-rule="nonzero"/></g></g></g><g clip-path="url(#8882383bd0)"><g clip-path="url(#8111be81cd)"><path fill="#000000" d="M 69.511719 134.628906 L 152.019531 134.628906 L 152.019531 189.496094 L 69.511719 189.496094 Z M 69.511719 134.628906 " fill-opacity="1" fill-rule="nonzero"/></g></g><g clip-path="url(#9b9ead46d5)"><path fill="#ffffff" d="M 76.84375 136.640625 L 92.582031 136.640625 L 92.582031 140.871094 L 76.84375 140.871094 Z M 76.84375 136.640625 " fill-opacity="1" fill-rule="nonzero"/></g><g clip-path="url(#8c20c729ae)"><path fill="#ffffff" d="M 103.761719 170.421875 L 110.128906 170.421875 L 110.128906 177.335938 L 103.761719 177.335938 Z M 103.761719 170.421875 " fill-opacity="1" fill-rule="nonzero"/></g><g clip-path="url(#866c4f749d)"><path fill="#ffffff" d="M 192.199219 174.628906 L 197.394531 174.628906 L 197.394531 180.273438 L 192.199219 180.273438 Z M 192.199219 174.628906 " fill-opacity="1" fill-rule="nonzero"/></g><g clip-path="url(#8837f38b32)"><path fill="#ffffff" d="M 103.761719 161.660156 L 110.128906 161.660156 L 110.128906 168.578125 L 103.761719 168.578125 Z M 103.761719 161.660156 " fill-opacity="1" fill-rule="nonzero"/></g><g clip-path="url(#9297ef9689)"><path fill="#ffffff" d="M 192.199219 167.480469 L 197.394531 167.480469 L 197.394531 173.125 L 192.199219 173.125 Z M 192.199219 167.480469 " fill-opacity="1" fill-rule="nonzero"/></g><g clip-path="url(#d34ee98d20)"><path fill="#ffffff" d="M 111.296875 170.421875 L 117.667969 170.421875 L 117.667969 177.335938 L 111.296875 177.335938 Z M 111.296875 170.421875 " fill-opacity="1" fill-rule="nonzero"/></g><g clip-path="url(#7ea608b623)"><path fill="#ffffff" d="M 198.351562 174.628906 L 203.546875 174.628906 L 203.546875 180.273438 L 198.351562 180.273438 Z M 198.351562 174.628906 " fill-opacity="1" fill-rule="nonzero"/></g><g clip-path="url(#ffa174b186)"><path fill="#ffffff" d="M 111.296875 161.660156 L 117.667969 161.660156 L 117.667969 168.578125 L 111.296875 168.578125 Z M 111.296875 161.660156 " fill-opacity="1" fill-rule="nonzero"/></g><g clip-path="url(#6a6ee21459)"><path fill="#ffffff" d="M 198.351562 167.480469 L 203.546875 167.480469 L 203.546875 173.125 L 198.351562 173.125 Z M 198.351562 167.480469 " fill-opacity="1" fill-rule="nonzero"/></g><g clip-path="url(#32ec66d344)"><g clip-path="url(#ec15349024)"><path fill="#ffffff" d="M 40.53125 181.820312 L 254.1875 181.820312 L 254.1875 211.085938 L 40.53125 211.085938 Z M 40.53125 181.820312 " fill-opacity="1" fill-rule="nonzero"/></g></g><g clip-path="url(#83ef20a985)"><g clip-path="url(#4a5d290e27)"><path fill="#000000" d="M 26.167969 186.472656 L 266.003906 186.472656 L 266.003906 215.738281 L 26.167969 215.738281 Z M 26.167969 186.472656 " fill-opacity="1" fill-rule="nonzero"/></g></g><g fill="#ffffff" fill-opacity="1"><g transform="translate(184.849638, 143.823483)"><g><path d="M 3.65625 -7.546875 L 3.171875 -7.546875 C 3.148438 -7.546875 3.132812 -7.546875 3.125 -7.546875 L 3.125 -0.84375 C 3.132812 -0.644531 3.207031 -0.472656 3.34375 -0.328125 C 3.488281 -0.179688 3.664062 -0.109375 3.875 -0.109375 L 4.015625 -0.109375 L 4.015625 0 L 0.515625 0 L 0.515625 -0.109375 L 0.671875 -0.109375 C 0.941406 -0.109375 1.148438 -0.226562 1.296875 -0.46875 C 1.359375 -0.582031 1.394531 -0.703125 1.40625 -0.828125 L 1.40625 -7.21875 C 1.394531 -7.414062 1.316406 -7.585938 1.171875 -7.734375 C 1.035156 -7.878906 0.867188 -7.953125 0.671875 -7.953125 L 0.515625 -7.953125 L 0.515625 -8.0625 L 4.46875 -8.0625 C 5.207031 -8.0625 5.835938 -7.898438 6.359375 -7.578125 C 6.617188 -7.410156 6.820312 -7.179688 6.96875 -6.890625 C 7.125 -6.609375 7.203125 -6.234375 7.203125 -5.765625 C 7.203125 -5.304688 7.039062 -4.859375 6.71875 -4.421875 C 6.394531 -3.992188 5.925781 -3.753906 5.3125 -3.703125 C 5.757812 -3.554688 6.15625 -3.21875 6.5 -2.6875 C 7.320312 -1.351562 7.9375 -0.5625 8.34375 -0.3125 C 8.539062 -0.1875 8.785156 -0.117188 9.078125 -0.109375 L 9.078125 0 L 7.953125 0 C 7.285156 0 6.726562 -0.0859375 6.28125 -0.265625 C 5.84375 -0.441406 5.5 -0.753906 5.25 -1.203125 C 5.101562 -1.453125 4.785156 -2.109375 4.296875 -3.171875 C 4.078125 -3.640625 3.816406 -3.894531 3.515625 -3.9375 L 3.515625 -4.046875 L 3.875 -4.046875 C 4.21875 -4.046875 4.519531 -4.148438 4.78125 -4.359375 C 5.050781 -4.566406 5.226562 -4.90625 5.3125 -5.375 C 5.34375 -5.539062 5.359375 -5.664062 5.359375 -5.75 C 5.359375 -6.382812 5.234375 -6.84375 4.984375 -7.125 C 4.734375 -7.40625 4.40625 -7.546875 4 -7.546875 C 3.925781 -7.546875 3.8125 -7.546875 3.65625 -7.546875 Z M 3.65625 -7.546875 "/></g></g></g><g fill="#ffffff" fill-opacity="1"><g transform="translate(194.76294, 143.823483)"><g><path d="M 0.640625 -0.109375 C 0.835938 -0.109375 1.003906 -0.179688 1.140625 -0.328125 C 1.285156 -0.472656 1.363281 -0.644531 1.375 -0.84375 L 1.375 -7.25 C 1.351562 -7.445312 1.296875 -7.59375 1.203125 -7.6875 C 1.015625 -7.863281 0.828125 -7.953125 0.640625 -7.953125 L 0.484375 -7.953125 L 0.484375 -8.0625 L 4.890625 -8.0625 C 5.265625 -8.0625 5.578125 -8.085938 5.828125 -8.140625 C 6.078125 -8.203125 6.226562 -8.242188 6.28125 -8.265625 L 6.28125 -6.25 L 6.15625 -6.265625 L 6.15625 -6.390625 C 6.15625 -6.867188 5.976562 -7.207031 5.625 -7.40625 C 5.457031 -7.5 5.257812 -7.550781 5.03125 -7.5625 L 3.09375 -7.5625 L 3.09375 -4.21875 L 4.625 -4.21875 C 4.90625 -4.21875 5.132812 -4.3125 5.3125 -4.5 C 5.5 -4.695312 5.59375 -4.929688 5.59375 -5.203125 L 5.59375 -5.3125 L 5.71875 -5.3125 L 5.71875 -2.65625 L 5.59375 -2.65625 L 5.59375 -2.734375 C 5.59375 -3.023438 5.503906 -3.257812 5.328125 -3.4375 C 5.148438 -3.625 4.921875 -3.722656 4.640625 -3.734375 L 3.09375 -3.734375 L 3.09375 -0.5 L 4.609375 -0.5 C 5.171875 -0.5 5.640625 -0.660156 6.015625 -0.984375 C 6.398438 -1.304688 6.679688 -1.757812 6.859375 -2.34375 L 6.984375 -2.34375 L 6.453125 0 L 0.484375 0 L 0.484375 -0.109375 Z M 0.640625 -0.109375 "/></g></g></g><g fill="#ffffff" fill-opacity="1"><g transform="translate(203.340811, 143.823483)"><g><path d="M 8.5 -0.109375 L 8.609375 -0.109375 L 8.609375 0 L 4.9375 0 L 4.9375 -0.109375 L 5.03125 -0.109375 C 5.207031 -0.109375 5.332031 -0.160156 5.40625 -0.265625 C 5.488281 -0.367188 5.53125 -0.46875 5.53125 -0.5625 C 5.53125 -0.65625 5.507812 -0.75 5.46875 -0.84375 L 4.90625 -2.25 L 2.21875 -2.25 L 1.609375 -0.84375 C 1.578125 -0.738281 1.5625 -0.640625 1.5625 -0.546875 C 1.5625 -0.460938 1.601562 -0.367188 1.6875 -0.265625 C 1.769531 -0.160156 1.894531 -0.109375 2.0625 -0.109375 L 2.15625 -0.109375 L 2.15625 0 L -0.3125 0 L -0.3125 -0.109375 L -0.203125 -0.109375 C -0.0234375 -0.109375 0.148438 -0.160156 0.328125 -0.265625 C 0.503906 -0.378906 0.648438 -0.546875 0.765625 -0.765625 L 3.421875 -6.78125 C 3.785156 -7.539062 3.976562 -8.046875 4 -8.296875 L 4.109375 -8.296875 L 7.53125 -0.78125 C 7.644531 -0.5625 7.785156 -0.394531 7.953125 -0.28125 C 8.128906 -0.164062 8.3125 -0.109375 8.5 -0.109375 Z M 2.40625 -2.734375 L 4.71875 -2.734375 L 3.59375 -5.578125 Z M 2.40625 -2.734375 "/></g></g></g><g fill="#ffffff" fill-opacity="1"><g transform="translate(212.897233, 143.823483)"><g><path d="M 0.640625 -0.109375 C 0.835938 -0.109375 1.003906 -0.179688 1.140625 -0.328125 C 1.285156 -0.472656 1.363281 -0.644531 1.375 -0.84375 L 1.375 -7.21875 C 1.363281 -7.414062 1.285156 -7.585938 1.140625 -7.734375 C 1.003906 -7.878906 0.835938 -7.953125 0.640625 -7.953125 L 0.484375 -7.953125 L 0.484375 -8.0625 L 3.984375 -8.0625 L 3.96875 -7.953125 L 3.828125 -7.953125 C 3.628906 -7.953125 3.457031 -7.878906 3.3125 -7.734375 C 3.164062 -7.585938 3.09375 -7.414062 3.09375 -7.21875 L 3.09375 -0.5 L 4.609375 -0.5 C 5.171875 -0.5 5.640625 -0.660156 6.015625 -0.984375 C 6.398438 -1.304688 6.679688 -1.757812 6.859375 -2.34375 L 6.984375 -2.34375 L 6.453125 0 L 0.484375 0 L 0.484375 -0.109375 Z M 0.640625 -0.109375 "/></g></g></g><g fill="#ffffff" fill-opacity="1"><g transform="translate(221.302415, 143.823483)"><g/></g></g><g fill="#ffffff" fill-opacity="1"><g transform="translate(225.494083, 143.823483)"><g><path d="M 0.640625 -0.109375 C 0.835938 -0.109375 1.003906 -0.179688 1.140625 -0.328125 C 1.285156 -0.472656 1.363281 -0.644531 1.375 -0.84375 L 1.375 -7.25 C 1.351562 -7.445312 1.296875 -7.59375 1.203125 -7.6875 C 1.015625 -7.863281 0.828125 -7.953125 0.640625 -7.953125 L 0.484375 -7.953125 L 0.484375 -8.0625 L 4.890625 -8.0625 C 5.265625 -8.0625 5.578125 -8.085938 5.828125 -8.140625 C 6.078125 -8.203125 6.226562 -8.242188 6.28125 -8.265625 L 6.28125 -6.25 L 6.15625 -6.265625 L 6.15625 -6.390625 C 6.15625 -6.867188 5.976562 -7.207031 5.625 -7.40625 C 5.457031 -7.5 5.257812 -7.550781 5.03125 -7.5625 L 3.09375 -7.5625 L 3.09375 -4.21875 L 4.625 -4.21875 C 4.90625 -4.21875 5.132812 -4.3125 5.3125 -4.5 C 5.5 -4.695312 5.59375 -4.929688 5.59375 -5.203125 L 5.59375 -5.3125 L 5.71875 -5.3125 L 5.71875 -2.65625 L 5.59375 -2.65625 L 5.59375 -2.734375 C 5.59375 -3.023438 5.503906 -3.257812 5.328125 -3.4375 C 5.148438 -3.625 4.921875 -3.722656 4.640625 -3.734375 L 3.09375 -3.734375 L 3.09375 -0.5 L 4.609375 -0.5 C 5.171875 -0.5 5.640625 -0.660156 6.015625 -0.984375 C 6.398438 -1.304688 6.679688 -1.757812 6.859375 -2.34375 L 6.984375 -2.34375 L 6.453125 0 L 0.484375 0 L 0.484375 -0.109375 Z M 0.640625 -0.109375 "/></g></g></g><g fill="#ffffff" fill-opacity="1"><g transform="translate(234.071953, 143.823483)"><g><path d="M 0.578125 -1.078125 C 0.578125 -1.628906 0.695312 -2.097656 0.9375 -2.484375 L 1.03125 -2.484375 C 1.03125 -2.421875 1.03125 -2.359375 1.03125 -2.296875 C 1.03125 -1.773438 1.21875 -1.316406 1.59375 -0.921875 C 1.976562 -0.523438 2.5 -0.328125 3.15625 -0.328125 C 3.664062 -0.328125 4.066406 -0.445312 4.359375 -0.6875 C 4.648438 -0.9375 4.796875 -1.25 4.796875 -1.625 C 4.796875 -1.84375 4.722656 -2.039062 4.578125 -2.21875 C 4.429688 -2.394531 4.195312 -2.59375 3.875 -2.8125 L 1.859375 -4.140625 C 1.117188 -4.628906 0.75 -5.242188 0.75 -5.984375 C 0.75 -6.054688 0.753906 -6.128906 0.765625 -6.203125 C 0.816406 -6.804688 1.054688 -7.289062 1.484375 -7.65625 C 1.910156 -8.03125 2.476562 -8.21875 3.1875 -8.21875 C 3.613281 -8.21875 4.132812 -8.179688 4.75 -8.109375 L 5.484375 -8.109375 L 5.328125 -6.421875 L 5.21875 -6.421875 C 5.21875 -6.816406 5.066406 -7.132812 4.765625 -7.375 C 4.472656 -7.613281 4.082031 -7.734375 3.59375 -7.734375 C 2.988281 -7.734375 2.554688 -7.550781 2.296875 -7.1875 C 2.148438 -7.007812 2.078125 -6.832031 2.078125 -6.65625 C 2.078125 -6.476562 2.113281 -6.328125 2.1875 -6.203125 C 2.289062 -6.003906 2.523438 -5.789062 2.890625 -5.5625 L 5.09375 -4.140625 C 5.78125 -3.679688 6.125 -3.085938 6.125 -2.359375 C 6.125 -1.546875 5.84375 -0.921875 5.28125 -0.484375 C 4.726562 -0.0546875 3.992188 0.15625 3.078125 0.15625 C 2.554688 0.15625 2.070312 0.09375 1.625 -0.03125 C 1.1875 -0.15625 0.863281 -0.328125 0.65625 -0.546875 C 0.601562 -0.691406 0.578125 -0.867188 0.578125 -1.078125 Z M 0.578125 -1.078125 "/></g></g></g><g fill="#ffffff" fill-opacity="1"><g transform="translate(242.039664, 143.823483)"><g><path d="M 4.703125 -7.59375 L 4.703125 -0.828125 C 4.710938 -0.628906 4.785156 -0.457031 4.921875 -0.3125 C 5.066406 -0.175781 5.242188 -0.109375 5.453125 -0.109375 L 5.578125 -0.109375 L 5.59375 0 L 2.09375 0 L 2.09375 -0.109375 L 2.25 -0.109375 C 2.4375 -0.109375 2.597656 -0.175781 2.734375 -0.3125 C 2.878906 -0.457031 2.960938 -0.625 2.984375 -0.8125 L 2.984375 -7.59375 L 1.421875 -7.59375 C 1.066406 -7.582031 0.785156 -7.46875 0.578125 -7.25 C 0.378906 -7.039062 0.28125 -6.765625 0.28125 -6.421875 L 0.28125 -6.28125 L 0.15625 -6.28125 L 0.15625 -8.28125 C 0.476562 -8.144531 0.929688 -8.078125 1.515625 -8.078125 L 6.15625 -8.078125 C 6.394531 -8.078125 6.65625 -8.097656 6.9375 -8.140625 C 7.21875 -8.179688 7.410156 -8.226562 7.515625 -8.28125 L 7.515625 -6.28125 L 7.40625 -6.28125 L 7.40625 -6.421875 C 7.40625 -6.890625 7.222656 -7.222656 6.859375 -7.421875 C 6.691406 -7.523438 6.488281 -7.582031 6.25 -7.59375 Z M 4.703125 -7.59375 "/></g></g></g><g fill="#ffffff" fill-opacity="1"><g transform="translate(251.020468, 143.823483)"><g><path d="M 8.5 -0.109375 L 8.609375 -0.109375 L 8.609375 0 L 4.9375 0 L 4.9375 -0.109375 L 5.03125 -0.109375 C 5.207031 -0.109375 5.332031 -0.160156 5.40625 -0.265625 C 5.488281 -0.367188 5.53125 -0.46875 5.53125 -0.5625 C 5.53125 -0.65625 5.507812 -0.75 5.46875 -0.84375 L 4.90625 -2.25 L 2.21875 -2.25 L 1.609375 -0.84375 C 1.578125 -0.738281 1.5625 -0.640625 1.5625 -0.546875 C 1.5625 -0.460938 1.601562 -0.367188 1.6875 -0.265625 C 1.769531 -0.160156 1.894531 -0.109375 2.0625 -0.109375 L 2.15625 -0.109375 L 2.15625 0 L -0.3125 0 L -0.3125 -0.109375 L -0.203125 -0.109375 C -0.0234375 -0.109375 0.148438 -0.160156 0.328125 -0.265625 C 0.503906 -0.378906 0.648438 -0.546875 0.765625 -0.765625 L 3.421875 -6.78125 C 3.785156 -7.539062 3.976562 -8.046875 4 -8.296875 L 4.109375 -8.296875 L 7.53125 -0.78125 C 7.644531 -0.5625 7.785156 -0.394531 7.953125 -0.28125 C 8.128906 -0.164062 8.3125 -0.109375 8.5 -0.109375 Z M 2.40625 -2.734375 L 4.71875 -2.734375 L 3.59375 -5.578125 Z M 2.40625 -2.734375 "/></g></g></g><g fill="#ffffff" fill-opacity="1"><g transform="translate(260.576888, 143.823483)"><g><path d="M 4.703125 -7.59375 L 4.703125 -0.828125 C 4.710938 -0.628906 4.785156 -0.457031 4.921875 -0.3125 C 5.066406 -0.175781 5.242188 -0.109375 5.453125 -0.109375 L 5.578125 -0.109375 L 5.59375 0 L 2.09375 0 L 2.09375 -0.109375 L 2.25 -0.109375 C 2.4375 -0.109375 2.597656 -0.175781 2.734375 -0.3125 C 2.878906 -0.457031 2.960938 -0.625 2.984375 -0.8125 L 2.984375 -7.59375 L 1.421875 -7.59375 C 1.066406 -7.582031 0.785156 -7.46875 0.578125 -7.25 C 0.378906 -7.039062 0.28125 -6.765625 0.28125 -6.421875 L 0.28125 -6.28125 L 0.15625 -6.28125 L 0.15625 -8.28125 C 0.476562 -8.144531 0.929688 -8.078125 1.515625 -8.078125 L 6.15625 -8.078125 C 6.394531 -8.078125 6.65625 -8.097656 6.9375 -8.140625 C 7.21875 -8.179688 7.410156 -8.226562 7.515625 -8.28125 L 7.515625 -6.28125 L 7.40625 -6.28125 L 7.40625 -6.421875 C 7.40625 -6.890625 7.222656 -7.222656 6.859375 -7.421875 C 6.691406 -7.523438 6.488281 -7.582031 6.25 -7.59375 Z M 4.703125 -7.59375 "/></g></g></g><g fill="#ffffff" fill-opacity="1"><g transform="translate(269.557689, 143.823483)"><g><path d="M 0.640625 -0.109375 C 0.835938 -0.109375 1.003906 -0.179688 1.140625 -0.328125 C 1.285156 -0.472656 1.363281 -0.644531 1.375 -0.84375 L 1.375 -7.25 C 1.351562 -7.445312 1.296875 -7.59375 1.203125 -7.6875 C 1.015625 -7.863281 0.828125 -7.953125 0.640625 -7.953125 L 0.484375 -7.953125 L 0.484375 -8.0625 L 4.890625 -8.0625 C 5.265625 -8.0625 5.578125 -8.085938 5.828125 -8.140625 C 6.078125 -8.203125 6.226562 -8.242188 6.28125 -8.265625 L 6.28125 -6.25 L 6.15625 -6.265625 L 6.15625 -6.390625 C 6.15625 -6.867188 5.976562 -7.207031 5.625 -7.40625 C 5.457031 -7.5 5.257812 -7.550781 5.03125 -7.5625 L 3.09375 -7.5625 L 3.09375 -4.21875 L 4.625 -4.21875 C 4.90625 -4.21875 5.132812 -4.3125 5.3125 -4.5 C 5.5 -4.695312 5.59375 -4.929688 5.59375 -5.203125 L 5.59375 -5.3125 L 5.71875 -5.3125 L 5.71875 -2.65625 L 5.59375 -2.65625 L 5.59375 -2.734375 C 5.59375 -3.023438 5.503906 -3.257812 5.328125 -3.4375 C 5.148438 -3.625 4.921875 -3.722656 4.640625 -3.734375 L 3.09375 -3.734375 L 3.09375 -0.5 L 4.609375 -0.5 C 5.171875 -0.5 5.640625 -0.660156 6.015625 -0.984375 C 6.398438 -1.304688 6.679688 -1.757812 6.859375 -2.34375 L 6.984375 -2.34375 L 6.453125 0 L 0.484375 0 L 0.484375 -0.109375 Z M 0.640625 -0.109375 "/></g></g></g></svg>