<svg xmlns="http://www.w3.org/2000/svg" xmlns:xlink="http://www.w3.org/1999/xlink" width="500" zoomAndPan="magnify" viewBox="0 0 375 374.999991" height="500" preserveAspectRatio="xMidYMid meet" version="1.0"><defs><g/><clipPath id="2a0e9a2155"><path d="M 112.5 142.160156 L 262.5 142.160156 L 262.5 212.660156 L 112.5 212.660156 Z M 112.5 142.160156 " clip-rule="nonzero"/></clipPath></defs><rect x="-37.5" width="450" fill="#ffffff" y="-37.499999" height="449.999989" fill-opacity="1"/><rect x="-37.5" width="450" fill="#242424" y="-37.499999" height="449.999989" fill-opacity="1"/><g clip-path="url(#2a0e9a2155)"><path fill="#be9d5d" d="M 182.003906 168.152344 C 177.890625 153.167969 164.191406 142.160156 147.914062 142.160156 C 128.539062 142.160156 112.800781 157.746094 112.570312 177.074219 L 120.671875 171.691406 C 123.34375 159.105469 134.523438 149.660156 147.914062 149.660156 C 163.296875 149.660156 175.757812 162.121094 175.757812 177.503906 C 175.757812 192.890625 163.296875 205.351562 147.914062 205.351562 C 134.878906 205.351562 123.949219 196.414062 120.902344 184.324219 L 147.199219 166.867188 L 171.058594 182.699219 L 171.058594 175.773438 L 164.039062 171.121094 L 164.039062 164.609375 L 158.179688 164.609375 L 158.179688 167.222656 L 147.199219 159.941406 L 120.066406 177.953125 L 112.941406 182.683594 C 115.445312 199.753906 130.148438 212.847656 147.914062 212.847656 C 164.191406 212.847656 177.890625 201.839844 182.003906 186.875 L 198.65625 186.875 L 201.113281 182.621094 L 203.539062 182.621094 L 203.539062 176.746094 L 204.375 176.269531 L 205.195312 175.789062 L 206.03125 176.269531 L 206.863281 176.746094 L 206.863281 182.621094 L 216.046875 182.621094 L 216.046875 179.886719 L 216.882812 179.421875 L 217.703125 178.941406 L 218.539062 179.421875 L 219.355469 179.886719 L 219.355469 182.621094 L 226.6875 182.621094 L 226.6875 174.878906 L 227.519531 174.398438 L 228.339844 173.917969 L 229.175781 174.398438 L 229.996094 174.878906 L 229.996094 182.621094 L 238.375 182.621094 L 240.832031 186.875 L 248.75 186.875 L 252.011719 180.242188 L 262.429688 180.320312 L 258.550781 173.578125 L 255.414062 168.152344 Z M 186.671875 172.464844 L 182.898438 172.464844 C 182.777344 171.675781 182.652344 170.902344 182.484375 170.144531 L 248.53125 170.144531 C 249.167969 170.144531 249.691406 170.671875 249.691406 171.304688 C 249.691406 171.941406 249.167969 172.464844 248.53125 172.464844 Z M 186.671875 172.464844 " fill-opacity="1" fill-rule="evenodd"/></g><path fill="#cccccc" d="M 171.058594 185.144531 L 147.199219 169.328125 L 123.019531 185.359375 L 147.199219 171.257812 Z M 153.277344 185.605469 L 153.277344 180.195312 L 147.867188 180.195312 L 147.867188 185.605469 Z M 146.445312 185.605469 L 146.445312 180.195312 L 141.046875 180.195312 L 141.046875 185.605469 Z M 146.445312 187.03125 L 141.046875 187.03125 L 141.046875 192.441406 L 146.445312 192.441406 Z M 147.867188 187.03125 L 147.867188 192.441406 L 153.277344 192.441406 L 153.277344 187.03125 Z M 147.867188 187.03125 " fill-opacity="1" fill-rule="evenodd"/><g fill="#be9d5d" fill-opacity="1"><g transform="translate(182.767032, 159.043833)"><g><path d="M 0.546875 0.03125 C 0.492188 0.03125 0.453125 0.0078125 0.421875 -0.03125 C 0.398438 -0.0703125 0.390625 -0.117188 0.390625 -0.171875 C 0.390625 -0.265625 0.40625 -0.316406 0.4375 -0.328125 C 0.46875 -0.347656 0.523438 -0.359375 0.609375 -0.359375 C 0.785156 -0.359375 0.914062 -0.390625 1 -0.453125 C 1.082031 -0.515625 1.132812 -0.59375 1.15625 -0.6875 C 1.175781 -0.78125 1.191406 -0.898438 1.203125 -1.046875 L 1.203125 -4.609375 C 1.191406 -4.765625 1.175781 -4.890625 1.15625 -4.984375 C 1.132812 -5.078125 1.082031 -5.15625 1 -5.21875 C 0.914062 -5.28125 0.785156 -5.3125 0.609375 -5.3125 L 0.5625 -5.3125 C 0.5 -5.3125 0.453125 -5.320312 0.421875 -5.34375 C 0.398438 -5.363281 0.390625 -5.421875 0.390625 -5.515625 C 0.390625 -5.566406 0.398438 -5.609375 0.421875 -5.640625 C 0.453125 -5.679688 0.492188 -5.703125 0.546875 -5.703125 C 0.941406 -5.679688 1.300781 -5.671875 1.625 -5.671875 L 3.171875 -5.671875 C 3.628906 -5.671875 4.007812 -5.597656 4.3125 -5.453125 C 4.625 -5.316406 4.851562 -5.140625 5 -4.921875 C 5.144531 -4.703125 5.21875 -4.46875 5.21875 -4.21875 C 5.21875 -3.882812 5.085938 -3.578125 4.828125 -3.296875 C 4.566406 -3.023438 4.210938 -2.828125 3.765625 -2.703125 L 3.921875 -2.46875 C 4.171875 -2.0625 4.394531 -1.710938 4.59375 -1.421875 C 4.800781 -1.128906 5.023438 -0.859375 5.265625 -0.609375 C 5.429688 -0.460938 5.613281 -0.378906 5.8125 -0.359375 C 5.820312 -0.359375 5.847656 -0.351562 5.890625 -0.34375 C 5.929688 -0.34375 5.960938 -0.328125 5.984375 -0.296875 C 6.015625 -0.273438 6.03125 -0.234375 6.03125 -0.171875 C 6.03125 -0.117188 6.015625 -0.0703125 5.984375 -0.03125 C 5.960938 0.0078125 5.925781 0.03125 5.875 0.03125 L 5.640625 0.015625 C 5.367188 0.00390625 5.175781 0 5.0625 0 C 4.820312 -0.0507812 4.613281 -0.132812 4.4375 -0.25 C 4.269531 -0.375 4.101562 -0.550781 3.9375 -0.78125 C 3.757812 -1.007812 3.515625 -1.382812 3.203125 -1.90625 L 3.046875 -2.15625 C 2.953125 -2.289062 2.863281 -2.382812 2.78125 -2.4375 C 2.695312 -2.488281 2.550781 -2.515625 2.34375 -2.515625 L 2.09375 -2.515625 L 2.09375 -1.046875 C 2.09375 -0.898438 2.101562 -0.78125 2.125 -0.6875 C 2.144531 -0.59375 2.195312 -0.515625 2.28125 -0.453125 C 2.363281 -0.390625 2.492188 -0.359375 2.671875 -0.359375 L 2.734375 -0.359375 C 2.785156 -0.359375 2.820312 -0.347656 2.84375 -0.328125 C 2.875 -0.304688 2.890625 -0.253906 2.890625 -0.171875 C 2.890625 -0.117188 2.875 -0.0703125 2.84375 -0.03125 C 2.820312 0.0078125 2.785156 0.03125 2.734375 0.03125 C 2.347656 0.0078125 1.972656 0 1.609375 0 C 1.296875 0 0.941406 0.0078125 0.546875 0.03125 Z M 2.875 -2.875 C 3.769531 -2.875 4.21875 -3.289062 4.21875 -4.125 C 4.21875 -4.46875 4.097656 -4.753906 3.859375 -4.984375 C 3.628906 -5.222656 3.25 -5.34375 2.71875 -5.34375 C 2.539062 -5.34375 2.40625 -5.320312 2.3125 -5.28125 C 2.226562 -5.238281 2.171875 -5.164062 2.140625 -5.0625 C 2.109375 -4.957031 2.09375 -4.800781 2.09375 -4.59375 L 2.09375 -2.875 Z M 2.875 -2.875 "/></g></g></g><g fill="#be9d5d" fill-opacity="1"><g transform="translate(190.975079, 159.043833)"><g><path d="M 0.546875 0.03125 C 0.492188 0.03125 0.453125 0.0078125 0.421875 -0.03125 C 0.398438 -0.0703125 0.390625 -0.117188 0.390625 -0.171875 C 0.390625 -0.265625 0.40625 -0.316406 0.4375 -0.328125 C 0.46875 -0.347656 0.523438 -0.359375 0.609375 -0.359375 C 0.785156 -0.359375 0.914062 -0.390625 1 -0.453125 C 1.082031 -0.515625 1.132812 -0.59375 1.15625 -0.6875 C 1.175781 -0.78125 1.191406 -0.898438 1.203125 -1.046875 L 1.203125 -4.625 C 1.191406 -4.769531 1.175781 -4.890625 1.15625 -4.984375 C 1.132812 -5.078125 1.082031 -5.15625 1 -5.21875 C 0.914062 -5.28125 0.785156 -5.3125 0.609375 -5.3125 L 0.5625 -5.3125 C 0.5 -5.3125 0.453125 -5.320312 0.421875 -5.34375 C 0.398438 -5.363281 0.390625 -5.421875 0.390625 -5.515625 C 0.390625 -5.566406 0.398438 -5.609375 0.421875 -5.640625 C 0.453125 -5.679688 0.492188 -5.703125 0.546875 -5.703125 C 0.941406 -5.679688 1.296875 -5.671875 1.609375 -5.671875 L 4.4375 -5.671875 C 4.59375 -5.671875 4.671875 -5.601562 4.671875 -5.46875 L 4.703125 -4.203125 C 4.703125 -4.148438 4.671875 -4.101562 4.609375 -4.0625 C 4.554688 -4.03125 4.503906 -4.015625 4.453125 -4.015625 C 4.378906 -4.015625 4.316406 -4.03125 4.265625 -4.0625 C 4.210938 -4.09375 4.179688 -4.132812 4.171875 -4.1875 C 4.128906 -4.476562 4.078125 -4.695312 4.015625 -4.84375 C 3.960938 -5 3.878906 -5.113281 3.765625 -5.1875 C 3.648438 -5.269531 3.492188 -5.3125 3.296875 -5.3125 L 2.09375 -5.3125 L 2.09375 -3.03125 L 3.71875 -3.03125 C 3.757812 -3.03125 3.789062 -3.007812 3.8125 -2.96875 C 3.84375 -2.925781 3.859375 -2.878906 3.859375 -2.828125 C 3.859375 -2.773438 3.84375 -2.726562 3.8125 -2.6875 C 3.789062 -2.65625 3.757812 -2.640625 3.71875 -2.640625 L 2.09375 -2.640625 L 2.09375 -0.9375 C 2.101562 -0.8125 2.113281 -0.710938 2.125 -0.640625 C 2.144531 -0.566406 2.203125 -0.5 2.296875 -0.4375 C 2.390625 -0.375 2.53125 -0.347656 2.71875 -0.359375 L 3.546875 -0.359375 C 3.753906 -0.367188 3.910156 -0.40625 4.015625 -0.46875 C 4.128906 -0.53125 4.21875 -0.625 4.28125 -0.75 C 4.34375 -0.882812 4.421875 -1.101562 4.515625 -1.40625 C 4.554688 -1.507812 4.65625 -1.550781 4.8125 -1.53125 C 4.875 -1.519531 4.925781 -1.492188 4.96875 -1.453125 C 5.019531 -1.421875 5.039062 -1.378906 5.03125 -1.328125 L 4.84375 -0.1875 C 4.832031 -0.113281 4.804688 -0.0625 4.765625 -0.03125 C 4.734375 -0.0078125 4.675781 0 4.59375 0 L 1.625 0 C 1.300781 0 0.941406 0.0078125 0.546875 0.03125 Z M 0.546875 0.03125 "/></g></g></g><g fill="#be9d5d" fill-opacity="1"><g transform="translate(198.490117, 159.043833)"><g><path d="M 0.046875 0.03125 C -0.00390625 0.03125 -0.0390625 0.0078125 -0.0625 -0.03125 C -0.09375 -0.0703125 -0.109375 -0.117188 -0.109375 -0.171875 C -0.0976562 -0.265625 -0.078125 -0.316406 -0.046875 -0.328125 C -0.0234375 -0.347656 0.00390625 -0.359375 0.046875 -0.359375 C 0.0859375 -0.359375 0.117188 -0.359375 0.140625 -0.359375 C 0.316406 -0.359375 0.445312 -0.40625 0.53125 -0.5 C 0.613281 -0.59375 0.679688 -0.695312 0.734375 -0.8125 C 0.785156 -0.925781 0.820312 -1.003906 0.84375 -1.046875 L 2.40625 -4.78125 C 2.445312 -4.863281 2.46875 -4.9375 2.46875 -5 C 2.46875 -5.101562 2.425781 -5.175781 2.34375 -5.21875 C 2.257812 -5.269531 2.140625 -5.3125 1.984375 -5.34375 C 1.890625 -5.363281 1.828125 -5.378906 1.796875 -5.390625 C 1.773438 -5.410156 1.765625 -5.460938 1.765625 -5.546875 C 1.765625 -5.617188 1.78125 -5.664062 1.8125 -5.6875 C 1.851562 -5.71875 1.914062 -5.734375 2 -5.734375 C 2.300781 -5.734375 2.539062 -5.707031 2.71875 -5.65625 C 2.894531 -5.613281 3.050781 -5.523438 3.1875 -5.390625 C 3.320312 -5.253906 3.445312 -5.050781 3.5625 -4.78125 L 5.0625 -1.046875 C 5.15625 -0.828125 5.242188 -0.660156 5.328125 -0.546875 C 5.410156 -0.429688 5.535156 -0.367188 5.703125 -0.359375 L 5.765625 -0.359375 C 5.816406 -0.359375 5.851562 -0.347656 5.875 -0.328125 C 5.90625 -0.304688 5.925781 -0.253906 5.9375 -0.171875 C 5.9375 -0.117188 5.921875 -0.0703125 5.890625 -0.03125 C 5.859375 0.0078125 5.816406 0.03125 5.765625 0.03125 C 5.378906 0.0078125 5.050781 0 4.78125 0 C 4.414062 0 4.039062 0.0078125 3.65625 0.03125 C 3.601562 0.03125 3.5625 0.0078125 3.53125 -0.03125 C 3.507812 -0.0703125 3.5 -0.117188 3.5 -0.171875 C 3.507812 -0.253906 3.523438 -0.304688 3.546875 -0.328125 C 3.566406 -0.347656 3.609375 -0.359375 3.671875 -0.359375 C 3.878906 -0.359375 4.023438 -0.378906 4.109375 -0.421875 C 4.191406 -0.460938 4.234375 -0.53125 4.234375 -0.625 C 4.234375 -0.707031 4.195312 -0.847656 4.125 -1.046875 L 3.8125 -1.796875 L 1.59375 -1.796875 C 1.445312 -1.421875 1.363281 -1.203125 1.34375 -1.140625 C 1.320312 -1.085938 1.3125 -1.054688 1.3125 -1.046875 C 1.238281 -0.828125 1.203125 -0.679688 1.203125 -0.609375 C 1.203125 -0.503906 1.242188 -0.4375 1.328125 -0.40625 C 1.421875 -0.375 1.59375 -0.359375 1.84375 -0.359375 L 1.90625 -0.359375 C 1.957031 -0.359375 1.992188 -0.347656 2.015625 -0.328125 C 2.046875 -0.304688 2.0625 -0.253906 2.0625 -0.171875 C 2.0625 -0.117188 2.046875 -0.0703125 2.015625 -0.03125 C 1.992188 0.0078125 1.957031 0.03125 1.90625 0.03125 C 1.519531 0.0078125 1.191406 0 0.921875 0 C 0.734375 0 0.441406 0.0078125 0.046875 0.03125 Z M 1.765625 -2.1875 L 3.65625 -2.1875 L 2.75 -4.5 L 2.71875 -4.5 Z M 1.765625 -2.1875 "/></g></g></g><g fill="#be9d5d" fill-opacity="1"><g transform="translate(206.536162, 159.043833)"><g><path d="M 0.546875 0.03125 C 0.492188 0.03125 0.453125 0.0078125 0.421875 -0.03125 C 0.398438 -0.0703125 0.390625 -0.117188 0.390625 -0.171875 C 0.390625 -0.265625 0.40625 -0.316406 0.4375 -0.328125 C 0.46875 -0.347656 0.523438 -0.359375 0.609375 -0.359375 C 0.785156 -0.359375 0.914062 -0.390625 1 -0.453125 C 1.082031 -0.515625 1.132812 -0.59375 1.15625 -0.6875 C 1.175781 -0.78125 1.191406 -0.898438 1.203125 -1.046875 L 1.203125 -4.625 C 1.191406 -4.769531 1.175781 -4.890625 1.15625 -4.984375 C 1.132812 -5.078125 1.082031 -5.15625 1 -5.21875 C 0.914062 -5.28125 0.785156 -5.3125 0.609375 -5.3125 L 0.5625 -5.3125 C 0.5 -5.3125 0.453125 -5.320312 0.421875 -5.34375 C 0.398438 -5.363281 0.390625 -5.421875 0.390625 -5.515625 C 0.390625 -5.566406 0.398438 -5.609375 0.421875 -5.640625 C 0.453125 -5.679688 0.492188 -5.703125 0.546875 -5.703125 C 0.941406 -5.679688 1.296875 -5.671875 1.609375 -5.671875 C 1.972656 -5.671875 2.347656 -5.679688 2.734375 -5.703125 C 2.785156 -5.703125 2.820312 -5.679688 2.84375 -5.640625 C 2.875 -5.609375 2.890625 -5.566406 2.890625 -5.515625 C 2.890625 -5.421875 2.875 -5.363281 2.84375 -5.34375 C 2.8125 -5.320312 2.753906 -5.3125 2.671875 -5.3125 C 2.492188 -5.3125 2.363281 -5.28125 2.28125 -5.21875 C 2.195312 -5.15625 2.144531 -5.078125 2.125 -4.984375 C 2.101562 -4.890625 2.09375 -4.769531 2.09375 -4.625 L 2.09375 -0.921875 C 2.101562 -0.796875 2.113281 -0.695312 2.125 -0.625 C 2.144531 -0.550781 2.203125 -0.484375 2.296875 -0.421875 C 2.390625 -0.367188 2.53125 -0.347656 2.71875 -0.359375 L 3.53125 -0.359375 C 3.738281 -0.367188 3.894531 -0.40625 4 -0.46875 C 4.113281 -0.53125 4.203125 -0.625 4.265625 -0.75 C 4.328125 -0.882812 4.398438 -1.101562 4.484375 -1.40625 C 4.523438 -1.507812 4.628906 -1.550781 4.796875 -1.53125 C 4.847656 -1.519531 4.894531 -1.492188 4.9375 -1.453125 C 4.988281 -1.421875 5.015625 -1.378906 5.015625 -1.328125 L 4.828125 -0.1875 C 4.816406 -0.113281 4.789062 -0.0625 4.75 -0.03125 C 4.71875 -0.0078125 4.660156 0 4.578125 0 L 1.625 0 C 1.300781 0 0.941406 0.0078125 0.546875 0.03125 Z M 0.546875 0.03125 "/></g></g></g><g fill="#be9d5d" fill-opacity="1"><g transform="translate(213.844199, 159.043833)"><g/></g></g><g fill="#be9d5d" fill-opacity="1"><g transform="translate(218.020217, 159.043833)"><g><path d="M 0.546875 0.03125 C 0.492188 0.03125 0.453125 0.0078125 0.421875 -0.03125 C 0.398438 -0.0703125 0.390625 -0.117188 0.390625 -0.171875 C 0.390625 -0.265625 0.40625 -0.316406 0.4375 -0.328125 C 0.46875 -0.347656 0.523438 -0.359375 0.609375 -0.359375 C 0.785156 -0.359375 0.914062 -0.390625 1 -0.453125 C 1.082031 -0.515625 1.132812 -0.59375 1.15625 -0.6875 C 1.175781 -0.78125 1.191406 -0.898438 1.203125 -1.046875 L 1.203125 -4.625 C 1.191406 -4.769531 1.175781 -4.890625 1.15625 -4.984375 C 1.132812 -5.078125 1.082031 -5.15625 1 -5.21875 C 0.914062 -5.28125 0.785156 -5.3125 0.609375 -5.3125 L 0.5625 -5.3125 C 0.5 -5.3125 0.453125 -5.320312 0.421875 -5.34375 C 0.398438 -5.363281 0.390625 -5.421875 0.390625 -5.515625 C 0.390625 -5.566406 0.398438 -5.609375 0.421875 -5.640625 C 0.453125 -5.679688 0.492188 -5.703125 0.546875 -5.703125 C 0.941406 -5.679688 1.296875 -5.671875 1.609375 -5.671875 L 4.4375 -5.671875 C 4.59375 -5.671875 4.671875 -5.601562 4.671875 -5.46875 L 4.703125 -4.203125 C 4.703125 -4.148438 4.671875 -4.101562 4.609375 -4.0625 C 4.554688 -4.03125 4.503906 -4.015625 4.453125 -4.015625 C 4.378906 -4.015625 4.316406 -4.03125 4.265625 -4.0625 C 4.210938 -4.09375 4.179688 -4.132812 4.171875 -4.1875 C 4.128906 -4.476562 4.078125 -4.695312 4.015625 -4.84375 C 3.960938 -5 3.878906 -5.113281 3.765625 -5.1875 C 3.648438 -5.269531 3.492188 -5.3125 3.296875 -5.3125 L 2.09375 -5.3125 L 2.09375 -3.03125 L 3.71875 -3.03125 C 3.757812 -3.03125 3.789062 -3.007812 3.8125 -2.96875 C 3.84375 -2.925781 3.859375 -2.878906 3.859375 -2.828125 C 3.859375 -2.773438 3.84375 -2.726562 3.8125 -2.6875 C 3.789062 -2.65625 3.757812 -2.640625 3.71875 -2.640625 L 2.09375 -2.640625 L 2.09375 -0.9375 C 2.101562 -0.8125 2.113281 -0.710938 2.125 -0.640625 C 2.144531 -0.566406 2.203125 -0.5 2.296875 -0.4375 C 2.390625 -0.375 2.53125 -0.347656 2.71875 -0.359375 L 3.546875 -0.359375 C 3.753906 -0.367188 3.910156 -0.40625 4.015625 -0.46875 C 4.128906 -0.53125 4.21875 -0.625 4.28125 -0.75 C 4.34375 -0.882812 4.421875 -1.101562 4.515625 -1.40625 C 4.554688 -1.507812 4.65625 -1.550781 4.8125 -1.53125 C 4.875 -1.519531 4.925781 -1.492188 4.96875 -1.453125 C 5.019531 -1.421875 5.039062 -1.378906 5.03125 -1.328125 L 4.84375 -0.1875 C 4.832031 -0.113281 4.804688 -0.0625 4.765625 -0.03125 C 4.734375 -0.0078125 4.675781 0 4.59375 0 L 1.625 0 C 1.300781 0 0.941406 0.0078125 0.546875 0.03125 Z M 0.546875 0.03125 "/></g></g></g><g fill="#be9d5d" fill-opacity="1"><g transform="translate(225.535254, 159.043833)"><g><path d="M 2.390625 0.1875 C 1.753906 0.1875 1.269531 0.078125 0.9375 -0.140625 C 0.601562 -0.367188 0.4375 -0.691406 0.4375 -1.109375 C 0.4375 -1.328125 0.507812 -1.503906 0.65625 -1.640625 C 0.800781 -1.785156 0.992188 -1.859375 1.234375 -1.859375 C 1.367188 -1.859375 1.472656 -1.828125 1.546875 -1.765625 C 1.617188 -1.703125 1.65625 -1.640625 1.65625 -1.578125 C 1.65625 -1.578125 1.625 -1.554688 1.5625 -1.515625 C 1.5 -1.484375 1.441406 -1.429688 1.390625 -1.359375 C 1.347656 -1.285156 1.328125 -1.1875 1.328125 -1.0625 C 1.328125 -0.78125 1.410156 -0.5625 1.578125 -0.40625 C 1.753906 -0.257812 2.023438 -0.1875 2.390625 -0.1875 C 2.628906 -0.1875 2.84375 -0.234375 3.03125 -0.328125 C 3.21875 -0.421875 3.359375 -0.546875 3.453125 -0.703125 C 3.554688 -0.859375 3.609375 -1.023438 3.609375 -1.203125 C 3.609375 -1.421875 3.546875 -1.609375 3.421875 -1.765625 C 3.296875 -1.921875 3.144531 -2.050781 2.96875 -2.15625 C 2.789062 -2.257812 2.546875 -2.378906 2.234375 -2.515625 C 1.867188 -2.679688 1.578125 -2.828125 1.359375 -2.953125 C 1.140625 -3.085938 0.953125 -3.265625 0.796875 -3.484375 C 0.640625 -3.703125 0.5625 -3.972656 0.5625 -4.296875 C 0.5625 -4.816406 0.738281 -5.207031 1.09375 -5.46875 C 1.445312 -5.726562 1.914062 -5.859375 2.5 -5.859375 C 2.957031 -5.859375 3.351562 -5.757812 3.6875 -5.5625 C 4.03125 -5.375 4.203125 -5.09375 4.203125 -4.71875 C 4.203125 -4.507812 4.128906 -4.332031 3.984375 -4.1875 C 3.835938 -4.050781 3.644531 -3.984375 3.40625 -3.984375 C 3.269531 -3.984375 3.164062 -4.015625 3.09375 -4.078125 C 3.019531 -4.140625 2.984375 -4.195312 2.984375 -4.25 C 2.984375 -4.257812 3.023438 -4.28125 3.109375 -4.3125 C 3.191406 -4.351562 3.265625 -4.410156 3.328125 -4.484375 C 3.390625 -4.554688 3.421875 -4.65625 3.421875 -4.78125 C 3.421875 -5 3.332031 -5.171875 3.15625 -5.296875 C 2.988281 -5.421875 2.773438 -5.484375 2.515625 -5.484375 C 2.148438 -5.484375 1.867188 -5.398438 1.671875 -5.234375 C 1.484375 -5.066406 1.390625 -4.851562 1.390625 -4.59375 C 1.390625 -4.382812 1.445312 -4.207031 1.5625 -4.0625 C 1.675781 -3.925781 1.859375 -3.789062 2.109375 -3.65625 C 2.316406 -3.539062 2.539062 -3.429688 2.78125 -3.328125 C 3.164062 -3.148438 3.46875 -2.988281 3.6875 -2.84375 C 3.914062 -2.707031 4.101562 -2.519531 4.25 -2.28125 C 4.40625 -2.050781 4.484375 -1.757812 4.484375 -1.40625 C 4.484375 -1.113281 4.390625 -0.84375 4.203125 -0.59375 C 4.015625 -0.351562 3.757812 -0.160156 3.4375 -0.015625 C 3.125 0.117188 2.773438 0.1875 2.390625 0.1875 Z M 2.390625 0.1875 "/></g></g></g><g fill="#be9d5d" fill-opacity="1"><g transform="translate(232.609281, 159.043833)"><g><path d="M 1.609375 0.03125 C 1.554688 0.03125 1.515625 0.0078125 1.484375 -0.03125 C 1.460938 -0.0703125 1.453125 -0.117188 1.453125 -0.171875 C 1.453125 -0.265625 1.46875 -0.316406 1.5 -0.328125 C 1.53125 -0.347656 1.585938 -0.359375 1.671875 -0.359375 C 1.847656 -0.359375 1.976562 -0.390625 2.0625 -0.453125 C 2.144531 -0.515625 2.195312 -0.59375 2.21875 -0.6875 C 2.238281 -0.78125 2.253906 -0.898438 2.265625 -1.046875 L 2.265625 -5.34375 L 1.640625 -5.34375 C 1.429688 -5.34375 1.269531 -5.300781 1.15625 -5.21875 C 1.050781 -5.132812 0.96875 -5.007812 0.90625 -4.84375 C 0.851562 -4.6875 0.804688 -4.460938 0.765625 -4.171875 C 0.753906 -4.128906 0.71875 -4.09375 0.65625 -4.0625 C 0.59375 -4.03125 0.523438 -4.015625 0.453125 -4.015625 C 0.398438 -4.015625 0.347656 -4.03125 0.296875 -4.0625 C 0.253906 -4.09375 0.234375 -4.132812 0.234375 -4.1875 L 0.265625 -5.46875 C 0.265625 -5.601562 0.34375 -5.671875 0.5 -5.671875 L 4.90625 -5.671875 C 5.0625 -5.671875 5.140625 -5.601562 5.140625 -5.46875 L 5.171875 -4.1875 C 5.171875 -4.132812 5.144531 -4.09375 5.09375 -4.0625 C 5.050781 -4.03125 5.003906 -4.015625 4.953125 -4.015625 C 4.878906 -4.015625 4.8125 -4.03125 4.75 -4.0625 C 4.6875 -4.09375 4.648438 -4.128906 4.640625 -4.171875 C 4.597656 -4.472656 4.546875 -4.703125 4.484375 -4.859375 C 4.429688 -5.015625 4.347656 -5.132812 4.234375 -5.21875 C 4.117188 -5.300781 3.960938 -5.34375 3.765625 -5.34375 L 3.15625 -5.34375 L 3.15625 -1.046875 C 3.15625 -0.898438 3.164062 -0.78125 3.1875 -0.6875 C 3.207031 -0.59375 3.257812 -0.515625 3.34375 -0.453125 C 3.425781 -0.390625 3.554688 -0.359375 3.734375 -0.359375 L 3.78125 -0.359375 C 3.84375 -0.359375 3.882812 -0.347656 3.90625 -0.328125 C 3.9375 -0.304688 3.953125 -0.253906 3.953125 -0.171875 C 3.953125 -0.117188 3.9375 -0.0703125 3.90625 -0.03125 C 3.882812 0.0078125 3.847656 0.03125 3.796875 0.03125 C 3.410156 0.0078125 3.054688 0 2.734375 0 C 2.378906 0 2.003906 0.0078125 1.609375 0.03125 Z M 1.609375 0.03125 "/></g></g></g><g fill="#be9d5d" fill-opacity="1"><g transform="translate(240.178323, 159.043833)"><g><path d="M 0.046875 0.03125 C -0.00390625 0.03125 -0.0390625 0.0078125 -0.0625 -0.03125 C -0.09375 -0.0703125 -0.109375 -0.117188 -0.109375 -0.171875 C -0.0976562 -0.265625 -0.078125 -0.316406 -0.046875 -0.328125 C -0.0234375 -0.347656 0.00390625 -0.359375 0.046875 -0.359375 C 0.0859375 -0.359375 0.117188 -0.359375 0.140625 -0.359375 C 0.316406 -0.359375 0.445312 -0.40625 0.53125 -0.5 C 0.613281 -0.59375 0.679688 -0.695312 0.734375 -0.8125 C 0.785156 -0.925781 0.820312 -1.003906 0.84375 -1.046875 L 2.40625 -4.78125 C 2.445312 -4.863281 2.46875 -4.9375 2.46875 -5 C 2.46875 -5.101562 2.425781 -5.175781 2.34375 -5.21875 C 2.257812 -5.269531 2.140625 -5.3125 1.984375 -5.34375 C 1.890625 -5.363281 1.828125 -5.378906 1.796875 -5.390625 C 1.773438 -5.410156 1.765625 -5.460938 1.765625 -5.546875 C 1.765625 -5.617188 1.78125 -5.664062 1.8125 -5.6875 C 1.851562 -5.71875 1.914062 -5.734375 2 -5.734375 C 2.300781 -5.734375 2.539062 -5.707031 2.71875 -5.65625 C 2.894531 -5.613281 3.050781 -5.523438 3.1875 -5.390625 C 3.320312 -5.253906 3.445312 -5.050781 3.5625 -4.78125 L 5.0625 -1.046875 C 5.15625 -0.828125 5.242188 -0.660156 5.328125 -0.546875 C 5.410156 -0.429688 5.535156 -0.367188 5.703125 -0.359375 L 5.765625 -0.359375 C 5.816406 -0.359375 5.851562 -0.347656 5.875 -0.328125 C 5.90625 -0.304688 5.925781 -0.253906 5.9375 -0.171875 C 5.9375 -0.117188 5.921875 -0.0703125 5.890625 -0.03125 C 5.859375 0.0078125 5.816406 0.03125 5.765625 0.03125 C 5.378906 0.0078125 5.050781 0 4.78125 0 C 4.414062 0 4.039062 0.0078125 3.65625 0.03125 C 3.601562 0.03125 3.5625 0.0078125 3.53125 -0.03125 C 3.507812 -0.0703125 3.5 -0.117188 3.5 -0.171875 C 3.507812 -0.253906 3.523438 -0.304688 3.546875 -0.328125 C 3.566406 -0.347656 3.609375 -0.359375 3.671875 -0.359375 C 3.878906 -0.359375 4.023438 -0.378906 4.109375 -0.421875 C 4.191406 -0.460938 4.234375 -0.53125 4.234375 -0.625 C 4.234375 -0.707031 4.195312 -0.847656 4.125 -1.046875 L 3.8125 -1.796875 L 1.59375 -1.796875 C 1.445312 -1.421875 1.363281 -1.203125 1.34375 -1.140625 C 1.320312 -1.085938 1.3125 -1.054688 1.3125 -1.046875 C 1.238281 -0.828125 1.203125 -0.679688 1.203125 -0.609375 C 1.203125 -0.503906 1.242188 -0.4375 1.328125 -0.40625 C 1.421875 -0.375 1.59375 -0.359375 1.84375 -0.359375 L 1.90625 -0.359375 C 1.957031 -0.359375 1.992188 -0.347656 2.015625 -0.328125 C 2.046875 -0.304688 2.0625 -0.253906 2.0625 -0.171875 C 2.0625 -0.117188 2.046875 -0.0703125 2.015625 -0.03125 C 1.992188 0.0078125 1.957031 0.03125 1.90625 0.03125 C 1.519531 0.0078125 1.191406 0 0.921875 0 C 0.734375 0 0.441406 0.0078125 0.046875 0.03125 Z M 1.765625 -2.1875 L 3.65625 -2.1875 L 2.75 -4.5 L 2.71875 -4.5 Z M 1.765625 -2.1875 "/></g></g></g><g fill="#be9d5d" fill-opacity="1"><g transform="translate(248.224366, 159.043833)"><g><path d="M 1.609375 0.03125 C 1.554688 0.03125 1.515625 0.0078125 1.484375 -0.03125 C 1.460938 -0.0703125 1.453125 -0.117188 1.453125 -0.171875 C 1.453125 -0.265625 1.46875 -0.316406 1.5 -0.328125 C 1.53125 -0.347656 1.585938 -0.359375 1.671875 -0.359375 C 1.847656 -0.359375 1.976562 -0.390625 2.0625 -0.453125 C 2.144531 -0.515625 2.195312 -0.59375 2.21875 -0.6875 C 2.238281 -0.78125 2.253906 -0.898438 2.265625 -1.046875 L 2.265625 -5.34375 L 1.640625 -5.34375 C 1.429688 -5.34375 1.269531 -5.300781 1.15625 -5.21875 C 1.050781 -5.132812 0.96875 -5.007812 0.90625 -4.84375 C 0.851562 -4.6875 0.804688 -4.460938 0.765625 -4.171875 C 0.753906 -4.128906 0.71875 -4.09375 0.65625 -4.0625 C 0.59375 -4.03125 0.523438 -4.015625 0.453125 -4.015625 C 0.398438 -4.015625 0.347656 -4.03125 0.296875 -4.0625 C 0.253906 -4.09375 0.234375 -4.132812 0.234375 -4.1875 L 0.265625 -5.46875 C 0.265625 -5.601562 0.34375 -5.671875 0.5 -5.671875 L 4.90625 -5.671875 C 5.0625 -5.671875 5.140625 -5.601562 5.140625 -5.46875 L 5.171875 -4.1875 C 5.171875 -4.132812 5.144531 -4.09375 5.09375 -4.0625 C 5.050781 -4.03125 5.003906 -4.015625 4.953125 -4.015625 C 4.878906 -4.015625 4.8125 -4.03125 4.75 -4.0625 C 4.6875 -4.09375 4.648438 -4.128906 4.640625 -4.171875 C 4.597656 -4.472656 4.546875 -4.703125 4.484375 -4.859375 C 4.429688 -5.015625 4.347656 -5.132812 4.234375 -5.21875 C 4.117188 -5.300781 3.960938 -5.34375 3.765625 -5.34375 L 3.15625 -5.34375 L 3.15625 -1.046875 C 3.15625 -0.898438 3.164062 -0.78125 3.1875 -0.6875 C 3.207031 -0.59375 3.257812 -0.515625 3.34375 -0.453125 C 3.425781 -0.390625 3.554688 -0.359375 3.734375 -0.359375 L 3.78125 -0.359375 C 3.84375 -0.359375 3.882812 -0.347656 3.90625 -0.328125 C 3.9375 -0.304688 3.953125 -0.253906 3.953125 -0.171875 C 3.953125 -0.117188 3.9375 -0.0703125 3.90625 -0.03125 C 3.882812 0.0078125 3.847656 0.03125 3.796875 0.03125 C 3.410156 0.0078125 3.054688 0 2.734375 0 C 2.378906 0 2.003906 0.0078125 1.609375 0.03125 Z M 1.609375 0.03125 "/></g></g></g><g fill="#be9d5d" fill-opacity="1"><g transform="translate(255.793408, 159.043833)"><g><path d="M 0.546875 0.03125 C 0.492188 0.03125 0.453125 0.0078125 0.421875 -0.03125 C 0.398438 -0.0703125 0.390625 -0.117188 0.390625 -0.171875 C 0.390625 -0.265625 0.40625 -0.316406 0.4375 -0.328125 C 0.46875 -0.347656 0.523438 -0.359375 0.609375 -0.359375 C 0.785156 -0.359375 0.914062 -0.390625 1 -0.453125 C 1.082031 -0.515625 1.132812 -0.59375 1.15625 -0.6875 C 1.175781 -0.78125 1.191406 -0.898438 1.203125 -1.046875 L 1.203125 -4.625 C 1.191406 -4.769531 1.175781 -4.890625 1.15625 -4.984375 C 1.132812 -5.078125 1.082031 -5.15625 1 -5.21875 C 0.914062 -5.28125 0.785156 -5.3125 0.609375 -5.3125 L 0.5625 -5.3125 C 0.5 -5.3125 0.453125 -5.320312 0.421875 -5.34375 C 0.398438 -5.363281 0.390625 -5.421875 0.390625 -5.515625 C 0.390625 -5.566406 0.398438 -5.609375 0.421875 -5.640625 C 0.453125 -5.679688 0.492188 -5.703125 0.546875 -5.703125 C 0.941406 -5.679688 1.296875 -5.671875 1.609375 -5.671875 L 4.4375 -5.671875 C 4.59375 -5.671875 4.671875 -5.601562 4.671875 -5.46875 L 4.703125 -4.203125 C 4.703125 -4.148438 4.671875 -4.101562 4.609375 -4.0625 C 4.554688 -4.03125 4.503906 -4.015625 4.453125 -4.015625 C 4.378906 -4.015625 4.316406 -4.03125 4.265625 -4.0625 C 4.210938 -4.09375 4.179688 -4.132812 4.171875 -4.1875 C 4.128906 -4.476562 4.078125 -4.695312 4.015625 -4.84375 C 3.960938 -5 3.878906 -5.113281 3.765625 -5.1875 C 3.648438 -5.269531 3.492188 -5.3125 3.296875 -5.3125 L 2.09375 -5.3125 L 2.09375 -3.03125 L 3.71875 -3.03125 C 3.757812 -3.03125 3.789062 -3.007812 3.8125 -2.96875 C 3.84375 -2.925781 3.859375 -2.878906 3.859375 -2.828125 C 3.859375 -2.773438 3.84375 -2.726562 3.8125 -2.6875 C 3.789062 -2.65625 3.757812 -2.640625 3.71875 -2.640625 L 2.09375 -2.640625 L 2.09375 -0.9375 C 2.101562 -0.8125 2.113281 -0.710938 2.125 -0.640625 C 2.144531 -0.566406 2.203125 -0.5 2.296875 -0.4375 C 2.390625 -0.375 2.53125 -0.347656 2.71875 -0.359375 L 3.546875 -0.359375 C 3.753906 -0.367188 3.910156 -0.40625 4.015625 -0.46875 C 4.128906 -0.53125 4.21875 -0.625 4.28125 -0.75 C 4.34375 -0.882812 4.421875 -1.101562 4.515625 -1.40625 C 4.554688 -1.507812 4.65625 -1.550781 4.8125 -1.53125 C 4.875 -1.519531 4.925781 -1.492188 4.96875 -1.453125 C 5.019531 -1.421875 5.039062 -1.378906 5.03125 -1.328125 L 4.84375 -0.1875 C 4.832031 -0.113281 4.804688 -0.0625 4.765625 -0.03125 C 4.734375 -0.0078125 4.675781 0 4.59375 0 L 1.625 0 C 1.300781 0 0.941406 0.0078125 0.546875 0.03125 Z M 0.546875 0.03125 "/></g></g></g></svg>