<svg xmlns="http://www.w3.org/2000/svg" xmlns:xlink="http://www.w3.org/1999/xlink" viewBox="0 0 498.9 95.05"><defs><style>.cls-1{fill:none;}.cls-2{clip-path:url(#clip-path);}.cls-3{clip-path:url(#clip-path-2);}.cls-4{clip-path:url(#clip-path-3);}.cls-5{clip-path:url(#clip-path-4);}.cls-6{clip-path:url(#clip-path-5);}.cls-7{clip-path:url(#clip-path-6);}.cls-8{clip-path:url(#clip-path-7);}.cls-9{clip-path:url(#clip-path-8);}.cls-10{clip-path:url(#clip-path-9);}.cls-11{clip-path:url(#clip-path-10);}.cls-12{clip-path:url(#clip-path-11);}.cls-13{fill:#fff;}.cls-14{clip-path:url(#clip-path-12);}.cls-15{clip-path:url(#clip-path-13);}.cls-16{clip-path:url(#clip-path-14);}.cls-17{clip-path:url(#clip-path-15);}.cls-18{clip-path:url(#clip-path-16);}.cls-19{clip-path:url(#clip-path-17);}.cls-20{clip-path:url(#clip-path-18);}.cls-21{clip-path:url(#clip-path-19);}.cls-22{clip-path:url(#clip-path-20);}.cls-23{clip-path:url(#clip-path-21);}.cls-24{clip-path:url(#clip-path-22);}.cls-25{clip-path:url(#clip-path-23);}.cls-26{clip-path:url(#clip-path-24);}.cls-27{clip-path:url(#clip-path-25);}.cls-28{clip-path:url(#clip-path-26);}.cls-29{clip-path:url(#clip-path-27);}.cls-30{clip-path:url(#clip-path-28);}.cls-31{clip-path:url(#clip-path-29);}.cls-32,.cls-33{font-size:36.02px;font-family:GoudyStout, Goudy Stout;}.cls-32{fill:#16ef34;}</style><clipPath id="clip-path"><rect class="cls-1" x="157.35" y="19.32" width="62.19" height="45.74"/></clipPath><clipPath id="clip-path-2"><rect class="cls-1" x="180.19" y="19.32" width="78.72" height="45.74"/></clipPath><clipPath id="clip-path-3"><polygon class="cls-1" points="219.54 19.32 258.88 65.07 180.19 65.07 219.54 19.32"/></clipPath><clipPath id="clip-path-4"><rect class="cls-1" x="124.23" width="112.02" height="65.07"/></clipPath><clipPath id="clip-path-5"><polygon class="cls-1" points="180.19 0 236.16 65.07 124.23 65.07 180.19 0"/></clipPath><clipPath id="clip-path-6"><rect class="cls-1" x="65.64" y="7.69" width="16.83" height="42.84"/></clipPath><clipPath id="clip-path-7"><rect class="cls-1" x="48.9" width="112.09" height="65.07"/></clipPath><clipPath id="clip-path-8"><polygon class="cls-1" points="104.86 0 160.82 65.07 48.9 65.07 104.86 0"/></clipPath><clipPath id="clip-path-9"><rect class="cls-1" x="104.86" width="75.33" height="65.07"/></clipPath><clipPath id="clip-path-10"><rect class="cls-1" x="180.19" y="24.8" width="74.09" height="43.01"/></clipPath><clipPath id="clip-path-11"><polygon class="cls-1" points="217.19 24.8 254.18 67.81 180.19 67.81 217.19 24.8"/></clipPath><clipPath id="clip-path-12"><rect class="cls-1" x="160.25" y="13.02" width="60" height="8"/></clipPath><clipPath id="clip-path-13"><rect class="cls-1" x="161.07" y="16.1" width="58.34" height="5" transform="translate(-0.88 15.32) rotate(-4.6)"/></clipPath><clipPath id="clip-path-14"><polygon class="cls-1" points="161.17 20.93 219.1 13.77 219.5 18.75 161.17 20.93"/></clipPath><clipPath id="clip-path-15"><rect class="cls-1" x="54.82" y="5.46" width="104.39" height="60.6"/></clipPath><clipPath id="clip-path-16"><polygon class="cls-1" points="106.94 5.46 159.06 66.06 54.82 66.06 106.94 5.46"/></clipPath><clipPath id="clip-path-17"><rect class="cls-1" x="64.1" y="7.35" width="19.9" height="5"/></clipPath><clipPath id="clip-path-18"><rect class="cls-1" x="98.15" y="44.99" width="8.05" height="7.63"/></clipPath><clipPath id="clip-path-19"><rect class="cls-1" x="210.01" y="49.64" width="6.57" height="6.23"/></clipPath><clipPath id="clip-path-20"><rect class="cls-1" x="98.15" y="35.32" width="8.05" height="7.64"/></clipPath><clipPath id="clip-path-21"><rect class="cls-1" x="210.01" y="41.74" width="6.57" height="6.23"/></clipPath><clipPath id="clip-path-22"><rect class="cls-1" x="107.68" y="44.99" width="8.06" height="7.63"/></clipPath><clipPath id="clip-path-23"><rect class="cls-1" x="217.79" y="49.64" width="6.57" height="6.23"/></clipPath><clipPath id="clip-path-24"><rect class="cls-1" x="107.68" y="35.32" width="8.06" height="7.64"/></clipPath><clipPath id="clip-path-25"><rect class="cls-1" x="217.79" y="41.74" width="6.57" height="6.23"/></clipPath><clipPath id="clip-path-26"><rect class="cls-1" x="18.17" y="57.58" width="270.32" height="32.32"/></clipPath><clipPath id="clip-path-27"><ellipse class="cls-1" cx="153.3" cy="73.74" rx="135.14" ry="16.16"/></clipPath><clipPath id="clip-path-28"><rect class="cls-1" y="62.72" width="303.41" height="32.32"/></clipPath><clipPath id="clip-path-29"><ellipse class="cls-1" cx="151.65" cy="78.89" rx="151.65" ry="16.16"/></clipPath></defs><g id="Layer_2" data-name="Layer 2"><g id="Layer_1-2" data-name="Layer 1"><g class="cls-2"><path d="M157.35,19.32h62.19V65.07H157.35Z"/></g><g class="cls-3"><g class="cls-4"><path d="M180.19,19.32h78.63V65.07H180.19Z"/></g></g><g class="cls-5"><g class="cls-6"><path d="M124.23,0H236.07V65.07H124.23Z"/></g></g><g class="cls-7"><path d="M65.64,7.69H82.47V50.56H65.64Z"/></g><g class="cls-8"><g class="cls-9"><path d="M48.9,0H160.73V65.07H48.9Z"/></g></g><g class="cls-10"><path d="M104.86,0h75.23V65.07H104.86Z"/></g><g class="cls-11"><g class="cls-12"><path class="cls-13" d="M180.19,24.8h73.93v43H180.19Z"/></g></g><g class="cls-14"><g class="cls-15"><g class="cls-16"><path class="cls-13" d="M161.36,23.42l-.4-5,58.14-4.67.4,5Z"/></g></g></g><g class="cls-17"><g class="cls-18"><path class="cls-13" d="M54.82,5.46H159v60.6H54.82Z"/></g></g><g class="cls-19"><path d="M64.1,7.35H84v5H64.1Z"/></g><g class="cls-20"><path d="M98.15,45h8v7.64h-8Z"/></g><g class="cls-21"><path d="M210,49.64h6.57v6.23H210Z"/></g><g class="cls-22"><path d="M98.15,35.32h8V43h-8Z"/></g><g class="cls-23"><path d="M210,41.74h6.57V48H210Z"/></g><g class="cls-24"><path d="M107.68,45h8v7.64h-8Z"/></g><g class="cls-25"><path d="M217.79,49.64h6.57v6.23h-6.57Z"/></g><g class="cls-26"><path d="M107.68,35.32h8V43h-8Z"/></g><g class="cls-27"><path d="M217.79,41.74h6.57V48h-6.57Z"/></g><g class="cls-28"><g class="cls-29"><path d="M18.17,57.58H288.49V89.91H18.17Z"/></g></g><g class="cls-30"><g class="cls-31"><path class="cls-13" d="M0,62.72H303.28V95.05H0Z"/></g></g><text class="cls-32" transform="translate(250.63 43.18) scale(0.39 1)">Pak </text><text class="cls-33" transform="translate(311.97 42.73) scale(0.4 1)">Real</text><text class="cls-33" transform="translate(390.08 42.73) scale(0.39 1)">Estate </text></g></g></svg>